<svg width="1733" height="1799" viewBox="0 0 1733 1799" fill="none" xmlns="http://www.w3.org/2000/svg">
<path d="M-65 1.5H336C352.569 1.5 366 14.9315 366 31.5V473.334C366 489.772 379.227 503.148 395.664 503.332L1674.84 517.668C1691.27 517.852 1704.5 531.228 1704.5 547.666V1189V1502C1704.5 1518.57 1691.07 1532 1674.5 1532H765C748.431 1532 735 1545.43 735 1562V2221.5" stroke="white" stroke-width="2" stroke-linecap="square" stroke-dasharray="20 20"/>
<path d="M1684.38 917.494L1701.56 956.017C1702.94 959.105 1707.06 959.105 1708.44 956.017L1725.62 917.494C1727.17 914.004 1723.72 910.383 1720.48 912.112L1706.7 919.467C1705.63 920.039 1704.37 920.039 1703.3 919.467L1689.52 912.112C1686.28 910.383 1682.83 914.004 1684.38 917.494Z" fill="#FE6D00" stroke="white" stroke-width="2"/>
</svg>
