<svg width="1920" height="599" viewBox="0 0 1920 599" fill="none" xmlns="http://www.w3.org/2000/svg">
<path d="M-127 28H403C419.569 28 433 41.4315 433 58V310.5C433 327.069 446.431 340.5 463 340.5H1688.5C1705.07 340.5 1718.5 353.931 1718.5 370.5V567.5C1718.5 584.069 1731.93 597.5 1748.5 597.5H1944.5" stroke="white" stroke-width="2" stroke-linecap="square" stroke-dasharray="20 20"/>
<path d="M275.494 48.6151L314.017 31.4359C317.106 30.0585 317.106 25.9415 314.017 24.5641L275.494 7.38491C272.004 5.82842 268.383 9.28466 270.112 12.5227L277.467 26.2981C278.039 27.3695 278.039 28.6305 277.467 29.7019L270.112 43.4772C268.383 46.7153 272.004 50.1716 275.494 48.6151Z" fill="#FE6D00" stroke="white" stroke-width="2"/>
</svg>
