<svg width="1920" height="458" viewBox="0 0 1920 458" fill="none" xmlns="http://www.w3.org/2000/svg">
<path d="M-54.5 365H203.5C220.069 365 233.5 378.431 233.5 395V426.5C233.5 443.069 246.931 456.5 263.5 456.5H466.5C483.069 456.5 496.5 443.069 496.5 426.5V391V31.5C496.5 14.9315 509.931 1.5 526.5 1.5H799C815.569 1.5 829 14.9315 829 31.5V177.5C829 194.069 842.431 207.5 859 207.5H1119C1135.57 207.5 1149 220.931 1149 237.5V332.5C1149 349.069 1162.43 362.5 1179 362.5H1704H1872H1979" stroke="white" stroke-width="2" stroke-linecap="square" stroke-dasharray="20 20"/>
</svg>
