<svg width="1920" height="717" viewBox="0 0 1920 717" fill="none" xmlns="http://www.w3.org/2000/svg">
<path d="M-49 1.5H87C103.569 1.5 117 14.9315 117 31.5V294C117 310.569 130.431 324 147 324H829C845.569 324 859 337.431 859 354V458C859 474.569 872.431 488 889 488H1115.5C1132.07 488 1145.5 501.431 1145.5 518V686C1145.5 702.569 1158.93 716 1175.5 716H1471.5H1811C1827.57 716 1841 702.569 1841 686V236C1841 219.431 1854.43 206 1871 206H2010.5" stroke="white" stroke-width="2" stroke-linecap="square" stroke-dasharray="20 20"/>
<path d="M96.3849 157.494L113.564 196.017C114.941 199.106 119.058 199.106 120.436 196.017L137.615 157.494C139.172 154.004 135.715 150.384 132.477 152.112L118.702 159.467C117.631 160.039 116.369 160.039 115.298 159.467L101.523 152.112C98.2847 150.384 94.8284 154.004 96.3849 157.494Z" fill="#FE6D00" stroke="white" stroke-width="2"/>
</svg>
