<svg width="1920" height="118" viewBox="0 0 1920 118" fill="none" xmlns="http://www.w3.org/2000/svg">
<path d="M-7.5 2.5H537C553.569 2.5 567 15.9315 567 32.5V59.5C567 76.0685 580.431 89.5 597 89.5H1315.5C1332.07 89.5 1345.5 76.0685 1345.5 59.5V31C1345.5 14.4315 1358.93 1 1375.5 1H2027" stroke="white" stroke-width="2" stroke-linecap="square" stroke-dasharray="20 20"/>
<path d="M877.494 110.615L916.017 93.4359C919.106 92.0585 919.106 87.9415 916.017 86.5641L877.494 69.3849C874.004 67.8284 870.384 71.2847 872.112 74.5227L879.467 88.2981C880.039 89.3695 880.039 90.6305 879.467 91.7019L872.112 105.477C870.384 108.715 874.004 112.172 877.494 110.615Z" fill="#FE6D00" stroke="white" stroke-width="2"/>
</svg>
