<svg width="457" height="90" viewBox="0 0 457 90" fill="none" xmlns="http://www.w3.org/2000/svg">
<path d="M7.09016 4.3689C7.68709 4.83222 7.85509 5.4752 8.08723 6.16319C8.13175 6.29113 8.17627 6.41906 8.22214 6.55087C8.36722 6.9686 8.51026 7.387 8.65336 7.80541C8.75362 8.0949 8.85405 8.38434 8.95465 8.67371C9.10581 9.10855 9.25687 9.54343 9.40737 9.9785C9.81029 11.1431 10.2239 12.3035 10.6448 13.4618C10.7058 13.6299 10.7668 13.798 10.8296 13.9712C10.9504 14.3039 11.0711 14.6365 11.192 14.9691C11.3787 15.4842 11.5643 15.9998 11.7496 16.5154C12.3394 18.1555 12.934 19.7934 13.5455 21.4256C14.297 23.432 15.0151 25.4472 15.7108 27.4735C17.1195 31.5725 18.6371 35.6335 20.1394 39.6992C20.3043 40.1455 20.469 40.592 20.6336 41.0385C20.7462 41.3434 20.859 41.6481 20.9718 41.9529C21.4547 43.2621 21.9213 44.5764 22.3822 45.8934C22.9487 47.5117 23.5251 49.1264 24.1033 50.7405C24.159 50.896 24.2147 51.0515 24.272 51.2117C25.0108 53.275 25.7624 55.3326 26.5328 57.3843C27.1285 58.9792 27.6863 60.5863 28.2344 62.1979C28.7509 63.7113 29.3103 65.1965 29.8743 66.6957C37.5062 66.7803 37.5062 66.7803 45.2922 66.8665C43.7887 71.9246 43.7887 71.9246 43.0468 74.2414C42.7194 75.2689 42.3972 76.298 42.0741 77.3268C42.0376 77.443 42.0011 77.5593 41.9635 77.6791C41.7755 78.278 41.5875 78.8769 41.3996 79.4759C41.2464 79.964 41.0931 80.452 40.9397 80.94C40.7144 81.6565 40.4894 82.3732 40.2647 83.0899C40.2107 83.262 40.2107 83.262 40.1556 83.4375C39.6831 84.9456 39.2213 86.4558 38.7888 87.9758C38.6531 88.4166 38.5067 88.8414 38.3431 89.2719C38.297 89.3935 38.2509 89.5151 38.2034 89.6404C38.1683 89.7323 38.1333 89.8242 38.0972 89.9189C35.8824 89.9349 33.6676 89.947 31.4528 89.9543C30.4238 89.9578 29.3948 89.9626 28.3658 89.9704C11.7851 90.0935 11.7851 90.0935 5.84281 84.4006C3.2468 81.8464 1.7174 78.652 0.858767 75.1483C0.817886 74.9825 0.777005 74.8167 0.734886 74.6459C0.0362424 71.5894 0.0150036 68.5309 0.0191602 65.4111C0.0195883 64.8073 0.0180318 64.2035 0.0167553 63.5997C0.0145861 62.4209 0.0142626 61.2421 0.0146654 60.0633C0.0149726 59.1036 0.0146678 58.1439 0.013942 57.1842C0.0138401 57.0469 0.013738 56.9096 0.0136329 56.7682C0.0134253 56.4891 0.0132172 56.21 0.0130088 55.931C0.0111513 53.3216 0.0115133 50.7123 0.0125605 48.1029C0.0134453 45.7245 0.0115191 43.3461 0.00826119 40.9678C0.00492908 38.5161 0.00352943 36.0644 0.00417097 33.6128C0.00449668 32.2402 0.00409072 30.8676 0.00165044 29.495C-0.000406596 28.3263 -0.000613971 27.1576 0.00144263 25.9889C0.00244035 25.3946 0.00267152 24.8003 0.000585901 24.206C-0.0189955 17.2246 0.922269 10.3959 6.04088 5.21202C6.69469 4.566 6.69469 4.566 7.09016 4.3689Z" fill="#FE6D00"/>
<path d="M82.9437 4.66016C85.4999 5.7391 87.1832 9.2151 88.2128 11.6448C88.6849 12.8554 89.0052 14.1126 89.3011 15.3755C89.3408 15.5418 89.3408 15.5418 89.3814 15.7113C90.0194 18.6258 90.0032 21.5834 89.9975 24.5507C89.9967 25.1556 89.998 25.7606 89.9989 26.3655C90.0004 27.5463 90.0001 28.7271 89.9991 29.9079C89.9983 30.8687 89.9982 31.8295 89.9986 32.7903C89.9986 32.9277 89.9987 33.0651 89.9987 33.2067C89.9989 33.486 89.999 33.7653 89.9991 34.0446C90.0001 36.6554 89.9989 39.2663 89.9971 41.8771C89.9956 44.1111 89.9958 46.345 89.9974 48.5789C89.9992 51.1813 90 53.7836 89.9989 56.386C89.9988 56.6641 89.9987 56.9423 89.9986 57.2205C89.9985 57.4257 89.9985 57.4257 89.9984 57.6351C89.9981 58.5933 89.9986 59.5515 89.9994 60.5097C90.0004 61.6795 90.0001 62.8492 89.9983 64.019C89.9974 64.6144 89.9971 65.2097 89.9982 65.805C90.0028 68.9961 89.9287 72.0865 89.1622 75.2004C89.1183 75.3801 89.0745 75.5599 89.0293 75.7452C87.8448 80.3577 85.1882 84.3842 81.0657 86.8611C75.545 89.9948 69.2274 90.038 63.067 89.9918C62.2794 89.9865 61.4919 89.9842 60.7043 89.9816C59.1708 89.9762 57.6373 89.9675 56.1039 89.9566C56.2334 89.1279 56.4417 88.3537 56.7022 87.5577C56.7956 87.2674 56.8889 86.9771 56.982 86.6867C57.033 86.5281 57.084 86.3695 57.1365 86.206C57.4424 85.2473 57.7396 84.2859 58.0378 83.3249C58.1698 82.8999 58.3018 82.475 58.4338 82.0501C58.5004 81.8356 58.567 81.6212 58.6356 81.4003C58.908 80.5227 59.1808 79.6452 59.4536 78.7677C59.5804 78.3602 59.707 77.9527 59.8337 77.5451C60.5271 75.3148 61.2243 73.0858 61.9355 70.8611C62.046 70.5154 62.1564 70.1697 62.2667 69.824C62.5799 68.843 62.8932 67.862 63.2067 66.8811C64.6083 62.4951 65.9876 58.1024 67.3548 53.7056C67.423 53.4866 67.4911 53.2675 67.5592 53.0484C67.8079 52.2491 68.0565 51.4498 68.3024 50.6496C68.6777 49.4354 69.0737 48.2301 69.4806 47.0261C70.0776 45.2581 70.6441 43.4904 71.1431 41.6924C71.4248 40.6858 71.7608 39.7107 72.1255 38.7308C72.4018 37.9305 72.6298 37.1203 72.8574 36.3052C73.1392 35.2959 73.4318 34.3027 73.7977 33.3198C74.1405 32.3949 74.4205 31.4649 74.6845 30.5157C75.1096 28.9926 75.583 27.4874 76.0735 25.9843C76.6403 24.2461 77.1991 22.5062 77.7403 20.7599C77.8039 20.5546 77.8676 20.3494 77.9331 20.1379C78.1797 19.3416 78.4257 18.5451 78.6712 17.7484C79.5316 14.9566 80.4122 12.1713 81.3016 9.38855C81.4275 8.9945 81.5532 8.60039 81.6788 8.20623C81.8559 7.65043 82.0338 7.09486 82.2118 6.53934C82.2659 6.36935 82.3199 6.19936 82.3756 6.02421C82.4255 5.86924 82.4753 5.71427 82.5267 5.5546C82.5702 5.41838 82.6138 5.28215 82.6587 5.14179C82.7728 4.83075 82.7728 4.83075 82.9437 4.66016Z" fill="#FE6D00"/>
<path d="M23.3766 0C37.4552 0 51.5337 0 66.0389 0C65.6363 1.61269 65.2484 3.15257 64.7057 4.70971C64.2059 6.15398 63.7527 7.60933 63.3113 9.07227C62.8588 10.5682 62.394 12.06 61.926 13.5511C61.8879 13.6727 61.8497 13.7943 61.8104 13.9196C61.4549 15.0528 61.0989 16.1859 60.7428 17.319C59.6082 20.9195 59.6082 20.9195 58.5287 24.5368C58.2603 25.4606 57.9743 26.3788 57.6878 27.2971C57.5883 27.6169 57.4888 27.9368 57.3893 28.2566C57.3173 28.4881 57.2452 28.7196 57.1731 28.9511C56.8816 29.8875 56.5913 30.8243 56.3012 31.7612C55.0274 35.8733 53.7387 39.9806 52.439 44.0846C51.7126 46.3805 51.0005 48.6802 50.304 50.9854C49.9353 52.2036 49.561 53.4202 49.1873 54.6369C49.1448 54.7752 49.1023 54.9135 49.0586 55.0561C48.1335 58.0674 47.1913 61.0733 46.2436 64.0777C46.131 64.0777 46.0183 64.0777 45.9023 64.0777C45.8366 63.887 45.7708 63.6963 45.7031 63.4998C44.2721 59.3516 42.818 55.2123 41.3336 51.0829C40.3413 48.3218 39.3657 45.5555 38.4055 42.7831C37.6743 40.6728 36.9217 38.5721 36.1474 36.4772C35.5757 34.9261 35.0328 33.3665 34.4986 31.8022C33.816 29.808 33.1141 27.8208 32.4103 25.834C32.3487 25.66 32.2871 25.4859 32.2236 25.3067C31.9059 24.4097 31.588 23.5128 31.27 22.6159C30.7046 21.0209 30.1399 19.4256 29.5755 17.8302C29.4532 17.4848 29.331 17.1393 29.2087 16.7938C28.5948 15.0595 27.9819 13.3248 27.3748 11.588C27.3271 11.4515 27.2793 11.3149 27.2301 11.1742C26.8553 10.1018 26.8553 10.1018 26.6758 9.58782C26.2033 8.23585 25.7252 6.88641 25.2297 5.54272C25.1864 5.42525 25.1432 5.30779 25.0986 5.18677C24.8964 4.63905 24.693 4.09185 24.4879 3.54521C24.4164 3.35284 24.3449 3.16046 24.2712 2.96226C24.1784 2.71524 24.1784 2.71524 24.0838 2.46323C23.8128 1.65314 23.6011 0.824228 23.3766 0Z" fill="#FE6D00"/>
<path d="M151.696 26.308L138.952 50.878V64H131.392V50.878L118.594 26.308H127.126L135.226 43.534L143.272 26.308H151.696ZM154.112 48.934C154.112 45.91 154.706 43.228 155.894 40.888C157.118 38.548 158.756 36.748 160.808 35.488C162.896 34.228 165.218 33.598 167.774 33.598C170.006 33.598 171.95 34.048 173.606 34.948C175.298 35.848 176.648 36.982 177.656 38.35V34.084H185.27V64H177.656V59.626C176.684 61.03 175.334 62.2 173.606 63.136C171.914 64.036 169.952 64.486 167.72 64.486C165.2 64.486 162.896 63.838 160.808 62.542C158.756 61.246 157.118 59.428 155.894 57.088C154.706 54.712 154.112 51.994 154.112 48.934ZM177.656 49.042C177.656 47.206 177.296 45.64 176.576 44.344C175.856 43.012 174.884 42.004 173.66 41.32C172.436 40.6 171.122 40.24 169.718 40.24C168.314 40.24 167.018 40.582 165.83 41.266C164.642 41.95 163.67 42.958 162.914 44.29C162.194 45.586 161.834 47.134 161.834 48.934C161.834 50.734 162.194 52.318 162.914 53.686C163.67 55.018 164.642 56.044 165.83 56.764C167.054 57.484 168.35 57.844 169.718 57.844C171.122 57.844 172.436 57.502 173.66 56.818C174.884 56.098 175.856 55.09 176.576 53.794C177.296 52.462 177.656 50.878 177.656 49.042ZM200.214 38.728C201.186 37.144 202.446 35.902 203.994 35.002C205.578 34.102 207.378 33.652 209.394 33.652V41.59H207.396C205.02 41.59 203.22 42.148 201.996 43.264C200.808 44.38 200.214 46.324 200.214 49.096V64H192.654V34.084H200.214V38.728ZM222.046 38.728C223.018 37.144 224.278 35.902 225.826 35.002C227.41 34.102 229.21 33.652 231.226 33.652V41.59H229.228C226.852 41.59 225.052 42.148 223.828 43.264C222.64 44.38 222.046 46.324 222.046 49.096V64H214.486V34.084H222.046V38.728ZM249.602 64.486C246.722 64.486 244.13 63.856 241.826 62.596C239.522 61.3 237.704 59.482 236.372 57.142C235.076 54.802 234.428 52.102 234.428 49.042C234.428 45.982 235.094 43.282 236.426 40.942C237.794 38.602 239.648 36.802 241.988 35.542C244.328 34.246 246.938 33.598 249.818 33.598C252.698 33.598 255.308 34.246 257.648 35.542C259.988 36.802 261.824 38.602 263.156 40.942C264.524 43.282 265.208 45.982 265.208 49.042C265.208 52.102 264.506 54.802 263.102 57.142C261.734 59.482 259.862 61.3 257.486 62.596C255.146 63.856 252.518 64.486 249.602 64.486ZM249.602 57.898C250.97 57.898 252.248 57.574 253.436 56.926C254.66 56.242 255.632 55.234 256.352 53.902C257.072 52.57 257.432 50.95 257.432 49.042C257.432 46.198 256.676 44.02 255.164 42.508C253.688 40.96 251.87 40.186 249.71 40.186C247.55 40.186 245.732 40.96 244.256 42.508C242.816 44.02 242.096 46.198 242.096 49.042C242.096 51.886 242.798 54.082 244.202 55.63C245.642 57.142 247.442 57.898 249.602 57.898ZM312.225 34.084L303.477 64H295.323L289.869 43.102L284.415 64H276.207L267.405 34.084H275.073L280.365 56.872L286.089 34.084H294.081L299.697 56.818L304.989 34.084H312.225ZM351.161 26.308V52.768C351.161 56.44 350.099 59.302 347.975 61.354C345.851 63.37 343.007 64.378 339.443 64.378C335.843 64.378 332.927 63.334 330.695 61.246C328.499 59.158 327.401 56.242 327.401 52.498H334.961C334.997 54.118 335.375 55.378 336.095 56.278C336.851 57.178 337.931 57.628 339.335 57.628C340.703 57.628 341.747 57.196 342.467 56.332C343.187 55.468 343.547 54.28 343.547 52.768V26.308H351.161ZM373.264 64.486C370.384 64.486 367.792 63.856 365.488 62.596C363.184 61.3 361.366 59.482 360.034 57.142C358.738 54.802 358.09 52.102 358.09 49.042C358.09 45.982 358.756 43.282 360.088 40.942C361.456 38.602 363.31 36.802 365.65 35.542C367.99 34.246 370.6 33.598 373.48 33.598C376.36 33.598 378.97 34.246 381.31 35.542C383.65 36.802 385.486 38.602 386.818 40.942C388.186 43.282 388.87 45.982 388.87 49.042C388.87 52.102 388.168 54.802 386.764 57.142C385.396 59.482 383.524 61.3 381.148 62.596C378.808 63.856 376.18 64.486 373.264 64.486ZM373.264 57.898C374.632 57.898 375.91 57.574 377.098 56.926C378.322 56.242 379.294 55.234 380.014 53.902C380.734 52.57 381.094 50.95 381.094 49.042C381.094 46.198 380.338 44.02 378.826 42.508C377.35 40.96 375.532 40.186 373.372 40.186C371.212 40.186 369.394 40.96 367.918 42.508C366.478 44.02 365.758 46.198 365.758 49.042C365.758 51.886 366.46 54.082 367.864 55.63C369.304 57.142 371.104 57.898 373.264 57.898ZM401.975 38.458C402.947 37.018 404.279 35.848 405.971 34.948C407.699 34.048 409.661 33.598 411.857 33.598C414.413 33.598 416.717 34.228 418.769 35.488C420.857 36.748 422.495 38.548 423.683 40.888C424.907 43.192 425.519 45.874 425.519 48.934C425.519 51.994 424.907 54.712 423.683 57.088C422.495 59.428 420.857 61.246 418.769 62.542C416.717 63.838 414.413 64.486 411.857 64.486C409.625 64.486 407.663 64.054 405.971 63.19C404.315 62.29 402.983 61.138 401.975 59.734V64H394.415V24.04H401.975V38.458ZM417.797 48.934C417.797 47.134 417.419 45.586 416.663 44.29C415.943 42.958 414.971 41.95 413.747 41.266C412.559 40.582 411.263 40.24 409.859 40.24C408.491 40.24 407.195 40.6 405.971 41.32C404.783 42.004 403.811 43.012 403.055 44.344C402.335 45.676 401.975 47.242 401.975 49.042C401.975 50.842 402.335 52.408 403.055 53.74C403.811 55.072 404.783 56.098 405.971 56.818C407.195 57.502 408.491 57.844 409.859 57.844C411.263 57.844 412.559 57.484 413.747 56.764C414.971 56.044 415.943 55.018 416.663 53.686C417.419 52.354 417.797 50.77 417.797 48.934ZM442.461 64.486C440.013 64.486 437.817 64.054 435.873 63.19C433.929 62.29 432.381 61.084 431.229 59.572C430.113 58.06 429.501 56.386 429.393 54.55H437.007C437.151 55.702 437.709 56.656 438.681 57.412C439.689 58.168 440.931 58.546 442.407 58.546C443.847 58.546 444.963 58.258 445.755 57.682C446.583 57.106 446.997 56.368 446.997 55.468C446.997 54.496 446.493 53.776 445.485 53.308C444.513 52.804 442.947 52.264 440.787 51.688C438.555 51.148 436.719 50.59 435.279 50.014C433.875 49.438 432.651 48.556 431.607 47.368C430.599 46.18 430.095 44.578 430.095 42.562C430.095 40.906 430.563 39.394 431.499 38.026C432.471 36.658 433.839 35.578 435.603 34.786C437.403 33.994 439.509 33.598 441.921 33.598C445.485 33.598 448.329 34.498 450.453 36.298C452.577 38.062 453.747 40.456 453.963 43.48H446.727C446.619 42.292 446.115 41.356 445.215 40.672C444.351 39.952 443.181 39.592 441.705 39.592C440.337 39.592 439.275 39.844 438.519 40.348C437.799 40.852 437.439 41.554 437.439 42.454C437.439 43.462 437.943 44.236 438.951 44.776C439.959 45.28 441.525 45.802 443.649 46.342C445.809 46.882 447.591 47.44 448.995 48.016C450.399 48.592 451.605 49.492 452.613 50.716C453.657 51.904 454.197 53.488 454.233 55.468C454.233 57.196 453.747 58.744 452.775 60.112C451.839 61.48 450.471 62.56 448.671 63.352C446.907 64.108 444.837 64.486 442.461 64.486Z" fill="#FE6D00"/>
</svg>
