<svg width="403" height="91" viewBox="0 0 403 91" fill="none" xmlns="http://www.w3.org/2000/svg">
<g clip-path="url(#clip0_48_617)">
<path d="M83.2382 12.9029C83.9586 13.4882 84.2952 13.8185 84.4588 14.7227C84.488 15.5856 84.4158 16.2704 83.9204 16.9775C82.3857 17.8675 80.7568 18.363 79.0192 18.6806C76.9286 19.1263 74.6519 19.6903 73.3529 21.5223C71.8156 24.2341 71.0949 27.4008 70.2647 30.3794C69.6171 32.6708 68.8063 34.9058 68.0073 37.1482C67.6597 38.128 67.3195 39.1103 66.9795 40.0927C65.9318 43.1186 64.8609 46.1362 63.779 49.1501C63.7052 49.3557 63.6315 49.5613 63.5556 49.7731C63.3506 50.3443 63.1451 50.9153 62.9394 51.4863C62.879 51.6545 62.8186 51.8227 62.7563 51.996C62.3415 53.1434 62.3415 53.1434 62.0875 53.6492C62.2289 53.7073 62.3702 53.7654 62.5159 53.8252C63.0751 54.1467 63.1797 54.3206 63.4201 54.9066C63.495 55.0889 63.5699 55.2712 63.647 55.459C64.1591 56.7993 64.6595 58.1428 65.1415 59.4942C65.3288 60.017 65.5195 60.5385 65.7103 61.0601C65.8308 61.3963 65.951 61.7326 66.071 62.069C66.1278 62.2228 66.1847 62.3765 66.2432 62.535C66.5913 63.5272 66.7284 64.3719 66.636 65.4203C66.1812 66.0853 66.1812 66.0853 65.4989 66.5521C64.8604 66.6438 64.3297 66.607 63.6795 66.5521C63.7425 66.675 63.8055 66.7978 63.8705 66.9244C63.9528 67.0864 64.0352 67.2483 64.1201 67.4152C64.2019 67.5754 64.2837 67.7356 64.368 67.9006C65.0944 69.4193 65.0671 71.4376 64.6611 73.0585C63.8566 74.979 62.6819 76.0993 60.8064 76.9775C58.9045 77.7335 57.0556 77.5688 55.1758 76.8103C53.3737 75.9054 52.2716 74.562 51.6258 72.6641C51.1105 70.2714 51.5596 68.6483 52.763 66.5521C48.335 66.6268 43.907 66.7015 39.3448 66.7785C39.645 67.4508 39.9452 68.1231 40.2545 68.8158C40.8284 70.815 40.3712 72.7394 39.4017 74.5316C38.2048 75.9876 36.7335 77.1987 34.7963 77.4178C32.6061 77.5752 30.8187 77.1854 29.0786 75.8067C27.5222 74.238 26.9999 72.5336 26.9727 70.3827C26.9961 68.9668 27.429 67.9447 28.2009 66.7785C27.9173 66.7452 27.9173 66.7452 27.6279 66.7113C27.3808 66.6775 27.1336 66.6436 26.879 66.6087C26.5109 66.5615 26.5109 66.5615 26.1354 66.5132C25.4718 66.3258 25.4718 66.3258 25.0489 65.9119C24.7781 65.3986 24.6911 65.0903 24.69 64.5148C24.6856 64.3654 24.6812 64.216 24.6767 64.0621C24.8444 63.3892 25.1597 63.1348 25.6992 62.7039C26.3723 62.5925 26.3723 62.5925 27.1728 62.595C27.3203 62.5942 27.4678 62.5934 27.6198 62.5926C28.1137 62.5912 28.6072 62.5961 29.1011 62.6011C29.4552 62.6013 29.8094 62.6012 30.1635 62.6007C31.1249 62.6004 32.0861 62.6057 33.0475 62.6121C34.0521 62.6177 35.0568 62.6183 36.0615 62.6193C37.964 62.6222 39.8664 62.6296 41.7688 62.6387C43.9347 62.6488 46.1006 62.6538 48.2665 62.6583C52.7219 62.6678 57.1773 62.6837 61.6326 62.7039C61.3346 61.8831 61.0359 61.0626 60.7371 60.2421C60.6523 60.0084 60.5674 59.7747 60.4799 59.5338C60.3986 59.3106 60.3172 59.0874 60.2334 58.8574C60.1584 58.6511 60.0833 58.4449 60.006 58.2323C59.824 57.7259 59.824 57.7259 59.5858 57.271C59.3236 57.272 59.3236 57.272 59.0562 57.2729C54.8045 57.2879 50.5527 57.2992 46.301 57.3062C44.2448 57.3097 42.1887 57.3145 40.1326 57.3223C38.3406 57.329 36.5486 57.3334 34.7566 57.3349C33.8076 57.3358 32.8587 57.3379 31.9098 57.3428C31.0166 57.3475 30.1234 57.3489 29.2302 57.3479C28.9024 57.348 28.5747 57.3494 28.2469 57.352C27.7992 57.3554 27.3514 57.3542 26.9036 57.3527C26.6531 57.3533 26.4026 57.354 26.1445 57.3546C25.3757 57.2591 24.9513 57.0527 24.3347 56.5919C24.0272 55.9859 24.0272 55.9859 23.7865 55.2284C23.74 55.0862 23.6934 54.944 23.6455 54.7975C23.4876 54.3121 23.3356 53.8251 23.1833 53.3379C23.0696 52.985 22.9555 52.6323 22.8409 52.2797C22.579 51.4719 22.3193 50.6635 22.0605 49.8547C21.5482 48.2589 21.0224 46.6676 20.4959 45.0763C20.2985 44.4795 20.1011 43.8826 19.9037 43.2858C19.8542 43.1363 19.8047 42.9868 19.7538 42.8327C19.1605 41.0384 18.5716 39.2426 17.9823 37.4469C17.4719 35.8917 16.9595 34.3373 16.4387 32.7854C16.2176 32.1261 15.9983 31.4662 15.7793 30.8062C15.6414 30.3932 15.5008 29.981 15.3601 29.569C14.8769 28.1065 14.5093 26.8128 14.9249 25.2824C15.4008 24.701 15.9081 24.5079 16.6021 24.2213C17.2328 24.1579 17.8112 24.1284 18.4407 24.1335C18.622 24.1323 18.8033 24.1311 18.9901 24.1298C19.5956 24.1266 20.2009 24.1282 20.8064 24.1298C21.2413 24.1285 21.6762 24.127 22.1112 24.1251C23.291 24.1211 24.4709 24.1213 25.6508 24.1226C26.6359 24.1233 27.621 24.1219 28.6062 24.1206C30.93 24.1174 33.2539 24.1177 35.5777 24.1203C37.9752 24.1229 40.3726 24.1197 42.7701 24.1137C44.8288 24.1087 46.8876 24.1071 48.9463 24.1085C50.1758 24.1092 51.4052 24.1087 52.6347 24.1048C53.7906 24.1013 54.9464 24.1022 56.1022 24.1065C56.5264 24.1073 56.9505 24.1066 57.3746 24.1042C57.9538 24.1012 58.5326 24.1038 59.1118 24.1078C59.3633 24.1046 59.3633 24.1046 59.6198 24.1012C60.7705 24.1176 61.429 24.4048 62.3149 25.1268C62.7081 25.9094 62.6537 26.7611 62.5423 27.6168C62.1343 28.2666 61.864 28.6335 61.1778 28.975C60.6477 28.9992 60.1169 29.0082 59.5862 29.0108C59.4205 29.012 59.2548 29.0131 59.0841 29.0142C58.5261 29.0177 57.968 29.0196 57.41 29.0215C57.0111 29.0237 56.6122 29.0259 56.2133 29.0283C55.1279 29.0344 54.0426 29.0392 52.9572 29.0437C51.8238 29.0486 50.6904 29.0548 49.557 29.0609C47.4097 29.0722 45.2624 29.0824 43.1151 29.0921C40.6709 29.1033 38.2267 29.1157 35.7825 29.1283C30.7536 29.1541 25.7247 29.1783 20.6958 29.2014C20.7372 29.3225 20.7785 29.4435 20.8211 29.5682C21.0075 30.1154 21.1928 30.6629 21.3781 31.2104C21.4432 31.401 21.5083 31.5915 21.5753 31.7878C21.6369 31.9702 21.6985 32.1526 21.7619 32.3405C21.8191 32.5088 21.8762 32.6771 21.9351 32.8506C22.0604 33.276 22.0604 33.276 22.0604 33.7288C22.2361 33.7277 22.4118 33.7267 22.5929 33.7256C26.8694 33.7006 31.1458 33.6819 35.4224 33.6701C37.4905 33.6643 39.5585 33.6563 41.6266 33.6434C43.4292 33.6321 45.2318 33.6248 47.0344 33.6223C47.9889 33.6208 48.9432 33.6173 49.8976 33.6091C50.7963 33.6014 51.6948 33.599 52.5935 33.6007C52.923 33.6004 53.2525 33.5982 53.582 33.5938C56.3808 33.5587 56.3808 33.5587 57.2757 34.2541C57.8953 35.02 58.0111 35.4643 57.9938 36.4452C57.615 37.5343 57.2028 37.9815 56.1744 38.4825C55.5266 38.566 55.5266 38.566 54.803 38.5641C54.3902 38.5655 54.3902 38.5655 53.969 38.567C53.669 38.5645 53.369 38.5621 53.0599 38.5596C52.7393 38.5594 52.4187 38.5595 52.0981 38.5599C51.2294 38.5601 50.3607 38.5561 49.4919 38.5513C48.5835 38.5471 47.675 38.5467 46.7666 38.5459C45.0469 38.5438 43.3274 38.5382 41.6077 38.5314C39.6498 38.5238 37.6917 38.5201 35.7337 38.5167C31.7066 38.5096 27.6795 38.4976 23.6524 38.4825C23.7006 38.6229 23.7488 38.7634 23.7985 38.9081C24.0162 39.544 24.2323 40.1804 24.4484 40.8169C24.5243 41.0379 24.6002 41.259 24.6785 41.4867C24.7503 41.699 24.8221 41.9113 24.8961 42.13C24.9628 42.3256 25.0295 42.5212 25.0982 42.7227C25.2444 43.2362 25.2444 43.2362 25.2444 43.9153C25.3887 43.9147 25.5329 43.9141 25.6816 43.9134C29.1932 43.8984 32.7047 43.8872 36.2163 43.8801C37.9144 43.8766 39.6126 43.8719 41.3108 43.8641C42.7909 43.8573 44.2711 43.8529 45.7513 43.8514C46.535 43.8505 47.3187 43.8485 48.1023 43.8435C48.9774 43.838 49.8524 43.8379 50.7274 43.8382C51.1168 43.8346 51.1168 43.8346 51.5141 43.8308C51.753 43.8318 51.9918 43.8327 52.2379 43.8337C52.4448 43.833 52.6517 43.8324 52.8649 43.8318C53.8133 43.9683 54.4099 44.3753 54.9946 45.1179C55.3255 45.8632 55.3971 46.2773 55.2647 47.0845C54.8475 47.7458 54.3856 48.3143 53.6727 48.6691C53.3183 48.6926 52.963 48.7022 52.6078 48.7049C52.271 48.7082 52.271 48.7082 51.9275 48.7116C51.5567 48.7135 51.5567 48.7135 51.1784 48.7155C50.9188 48.7178 50.6592 48.72 50.3918 48.7223C49.5304 48.7295 48.669 48.7351 47.8076 48.7407C47.2116 48.7453 46.6157 48.7501 46.0198 48.7549C44.6095 48.7662 43.1991 48.7764 41.7888 48.7862C40.1833 48.7973 38.5779 48.8098 36.9725 48.8223C33.6696 48.8481 30.3667 48.8723 27.0638 48.8954C27.1869 49.3042 27.1869 49.3042 27.3125 49.7213C27.4192 50.0779 27.5258 50.4346 27.6323 50.7913C27.6866 50.971 27.7408 51.1508 27.7967 51.336C27.848 51.5081 27.8993 51.6803 27.9522 51.8577C27.9998 52.0165 28.0474 52.1754 28.0965 52.339C28.2009 52.7437 28.2009 52.7437 28.2009 53.1964C37.9575 53.1964 47.7141 53.1964 57.7664 53.1964C57.9165 52.5241 58.0666 51.8518 58.2212 51.1591C58.4139 50.5546 58.6128 49.9602 58.828 49.3641C58.9192 49.1064 58.9192 49.1064 59.0122 48.8435C59.1458 48.4663 59.2799 48.0894 59.4144 47.7126C59.7964 46.642 60.1742 45.57 60.5523 44.498C60.6359 44.2613 60.7195 44.0246 60.8056 43.7807C61.8106 40.9291 62.7926 38.0697 63.7759 35.2107C64.5045 33.0925 65.2355 30.9752 65.9666 28.8579C66.4273 27.5234 66.8878 26.1887 67.3457 24.8532C67.6678 23.9138 67.9921 22.9752 68.3188 22.0374C68.4267 21.7262 68.5337 21.4147 68.6398 21.1029C68.7802 20.6902 68.9242 20.2787 69.0684 19.8672C69.1435 19.6496 69.2186 19.432 69.2959 19.2078C69.9638 17.7539 70.6116 16.8944 72.1295 16.2977C72.307 16.2337 72.4844 16.1698 72.6673 16.1039C72.8532 16.0324 73.0391 15.9608 73.2306 15.8872C73.8214 15.6611 74.4146 15.4421 75.0081 15.2232C75.4041 15.073 75.7999 14.9224 76.1955 14.7713C77.09 14.4309 77.9861 14.0949 78.8839 13.7632C79.2171 13.6395 79.5498 13.5144 79.882 13.3882C81.0431 12.9479 82.0029 12.6201 83.2382 12.9029ZM31.1575 69.7213C30.8863 70.5552 30.806 71.3905 31.0882 72.2281C31.3931 72.7981 31.7356 73.2581 32.2377 73.6686C33.4341 73.9663 34.2556 73.9576 35.3364 73.3998C36.2446 72.6249 36.3641 72.288 36.4593 71.0937C36.4321 70.2357 36.2807 69.7096 35.706 69.0422C33.9885 67.9405 32.4764 68.18 31.1575 69.7213ZM56.1744 69.0422C55.5088 69.8151 55.3707 70.5157 55.4113 71.5331C55.5752 72.4492 56.0779 73.0899 56.7998 73.6544C57.9861 73.9824 58.8237 73.9545 59.8985 73.3998C60.755 72.6691 60.9195 72.3227 61.0214 71.2068C60.9208 70.0656 60.4545 69.3242 59.5858 68.5895C58.3238 68.2114 57.2653 68.2666 56.1744 69.0422Z" fill="#EC1B23"/>
<path d="M46.2956 -0.0848283C46.4911 -0.086627 46.6867 -0.0884257 46.8882 -0.0902789C50.5564 -0.116164 54.18 0.25066 57.738 1.17434C57.922 1.22174 58.106 1.26914 58.2956 1.31798C64.7995 3.0576 70.7999 6.09902 75.9606 10.413C76.1063 10.5329 76.252 10.6529 76.4021 10.7764C76.711 11.0311 77.0183 11.2877 77.3251 11.5448C76.9343 12.3228 76.021 12.443 75.2356 12.7191C74.9777 12.8161 74.9777 12.8161 74.7146 12.915C73.6869 13.2796 72.9397 13.4844 71.8669 13.1294C71.2645 12.7333 71.2645 12.7333 70.6445 12.2239C69.0392 10.9624 67.3096 9.99365 65.4989 9.05479C65.3474 8.97567 65.1959 8.89655 65.0397 8.81504C55.0454 3.67059 43.3435 3.24175 32.7308 6.56872C31.0849 7.1203 29.5248 7.82928 27.9735 8.60205C27.8267 8.67347 27.6798 8.74489 27.5285 8.81847C17.9066 13.5241 10.565 22.0346 6.98216 32.0503C3.36393 42.6669 4.21788 53.9811 9.09713 64.0622C9.78076 65.3927 10.5469 66.6624 11.3714 67.9105C11.4628 68.0498 11.5542 68.189 11.6483 68.3325C12.7915 70.0517 14.0572 71.5981 15.5001 73.0778C16.0254 73.6196 16.3594 73.9766 16.6022 74.7015C16.9015 74.8601 17.2053 75.0104 17.5119 75.1543C17.8451 75.4655 17.8451 75.4655 18.18 75.8334C23.2712 81.019 30.7411 84.261 37.7529 85.7936C38.0028 85.8497 38.0028 85.8497 38.2577 85.9069C43.4568 87.0204 49.6306 86.982 54.8099 85.7936C55.0085 85.7486 55.2071 85.7036 55.4118 85.6573C66.0232 83.1766 75.2577 76.8077 81.1914 67.6841C82.0887 66.2103 82.9188 64.698 83.6931 63.1568C85.3442 63.1568 86.9953 63.1568 88.6964 63.1568C88.4402 64.6874 88.4402 64.6874 88.0293 65.4691C87.9391 65.6414 87.8489 65.8137 87.756 65.9913C87.6582 66.1718 87.5605 66.3522 87.4598 66.5381C87.3586 66.7269 87.2573 66.9157 87.153 67.1102C84.0183 72.8574 79.5786 77.9786 74.3044 81.8804C73.9336 82.1568 73.569 82.4413 73.2048 82.7261C66.5531 87.824 57.2768 91.0008 48.8639 91.046C48.6706 91.0473 48.4773 91.0486 48.2782 91.0499C47.8705 91.0521 47.4629 91.0536 47.0552 91.0544C46.4479 91.0566 45.8408 91.0636 45.2335 91.0708C41.7112 91.0924 38.24 90.7119 34.8248 89.8258C34.6412 89.7787 34.4577 89.7316 34.2686 89.6831C27.777 87.9519 21.7045 84.9711 16.6022 80.5871C16.3441 80.3674 16.3441 80.3674 16.0807 80.1432C15.4852 79.623 14.9051 79.0901 14.3279 78.5498C14.1374 78.3717 14.1374 78.3717 13.943 78.19C5.66165 70.3839 0.429924 59.3608 -0.0282027 47.9663C-0.227475 39.7912 1.10518 31.8675 5.02232 24.609C5.21152 24.2574 5.39478 23.9027 5.57734 23.5477C7.37593 20.1156 9.85368 17.0711 12.5085 14.2613C12.6278 14.1348 12.7471 14.0084 12.87 13.8782C19.2897 7.13081 27.7055 2.55828 36.8432 0.679164C37.0124 0.642105 37.1817 0.605046 37.3561 0.566864C40.3088 -0.0574366 43.2902 -0.0703654 46.2956 -0.0848283Z" fill="#ED1B22"/>
<path d="M254.994 33.4831C256.3 34.701 256.939 35.8026 257.22 37.5772C257.239 38.197 257.248 38.8108 257.245 39.4304C257.245 39.6138 257.245 39.7972 257.245 39.9862C257.245 40.5901 257.244 41.1939 257.242 41.7977C257.241 42.2173 257.241 42.637 257.241 43.0566C257.24 44.1593 257.238 45.2619 257.235 46.3646C257.232 47.6885 257.231 49.0125 257.23 50.3365C257.228 52.3462 257.223 54.356 257.22 56.3657C252.942 56.3657 248.664 56.3657 244.256 56.3657C244.243 54.8942 244.243 54.8942 244.23 53.3929C244.222 52.6085 244.212 51.8241 244.203 51.0398C244.192 50.213 244.184 49.3862 244.177 48.5594C244.171 47.7623 244.162 46.9654 244.151 46.1684C244.145 45.7178 244.143 45.2671 244.141 44.8165C244.136 44.5401 244.132 44.2638 244.127 43.979C244.125 43.7368 244.122 43.4945 244.119 43.2448C243.984 42.221 243.631 41.4576 242.863 40.7605C241.915 40.4116 241.132 40.4932 240.163 40.7463C238.956 41.4133 238.38 42.5832 237.994 43.8685C237.872 44.4456 237.851 44.9826 237.842 45.5724C237.837 45.8158 237.832 46.0593 237.828 46.3102C237.824 46.5646 237.82 46.819 237.816 47.0811C237.812 47.316 237.808 47.551 237.803 47.793C237.788 48.6699 237.774 49.5467 237.76 50.4236C237.727 52.3845 237.695 54.3454 237.661 56.3657C233.383 56.3657 229.105 56.3657 224.698 56.3657C224.698 48.0739 224.698 39.782 224.698 31.2389C228.825 31.2389 232.953 31.2389 237.206 31.2389C237.319 32.1353 237.319 32.1353 237.433 33.0498C237.635 32.8864 237.837 32.723 238.045 32.5546C242.973 29.0939 250.496 29.6139 254.994 33.4831Z" fill="#EC1B23"/>
<path d="M362.291 31.6917C366.493 31.6917 370.696 31.6917 375.026 31.6917C375.026 40.0582 375.026 48.4248 375.026 57.0449C370.974 57.0449 366.921 57.0449 362.745 57.0449C362.633 56.2605 362.633 56.2605 362.518 55.4603C362.23 55.7054 362.23 55.7054 361.935 55.9555C358.988 58.0413 354.525 58.5356 351.038 58.0715C348.5 57.6064 346.484 56.7832 344.878 54.7211C343.62 52.3385 343.78 49.8786 343.802 47.2598C343.804 46.8164 343.805 46.373 343.805 45.9296C343.808 44.7693 343.815 43.609 343.822 42.4486C343.83 41.0529 343.834 39.6571 343.837 38.2613C343.844 36.1469 343.857 34.0325 343.869 31.918C348.147 31.918 352.425 31.918 356.832 31.918C356.845 33.4062 356.845 33.4062 356.858 34.9245C356.867 35.7193 356.876 36.5142 356.886 37.309C356.896 38.146 356.905 38.9829 356.911 39.8199C356.917 40.6272 356.926 41.4344 356.938 42.2417C356.943 42.6971 356.946 43.1525 356.948 43.6078C356.986 46.2644 356.986 46.2644 358.367 48.457C359.08 48.957 359.08 48.957 359.917 48.9381C360.952 48.5821 361.225 48.2055 361.836 47.3111C362.088 46.5571 362.099 45.9779 362.11 45.1834C362.112 45.0376 362.114 44.8917 362.117 44.7415C362.124 44.2602 362.129 43.7788 362.135 43.2974C362.14 42.9634 362.145 42.6294 362.149 42.2955C362.162 41.4168 362.173 40.5382 362.184 39.6596C362.198 38.6051 362.213 37.5507 362.227 36.4962C362.25 34.8947 362.27 33.2932 362.291 31.6917Z" fill="#EC1B23"/>
<path d="M147.657 34.691C150.07 36.891 151.233 40.0536 151.466 43.2364C151.503 47.0626 150.565 50.426 147.913 53.239C143.837 57.0847 138.098 57.6737 132.714 57.5542C128.502 57.3772 124.402 55.7314 121.477 52.6634C118.902 49.4911 118.133 46.1121 118.489 42.1045C119.047 38.6709 121.325 35.5818 124.074 33.5193C131 28.8536 141.242 29.5584 147.657 34.691ZM133.272 40.0672C132.064 41.2693 131.667 42.3165 131.595 43.9862C131.628 45.594 132.117 46.7578 133.158 47.976C133.982 48.6525 134.316 48.9015 135.404 48.8814C136.379 48.6306 136.984 48.3238 137.593 47.5374C138.524 45.8408 139.099 44.3422 138.571 42.4361C138.113 41.1304 137.651 40.3374 136.456 39.6145C135.184 39.2463 134.413 39.415 133.272 40.0672Z" fill="#ED1B22"/>
<path d="M323.884 34.2283C325.077 35.364 325.63 36.6159 325.73 38.2444C325.731 38.5866 325.73 38.9289 325.727 39.2711C325.727 39.459 325.727 39.6468 325.727 39.8404C325.726 40.4577 325.723 41.075 325.719 41.6923C325.719 42.1217 325.718 42.5512 325.717 42.9806C325.716 44.1082 325.711 45.2358 325.706 46.3634C325.701 47.7178 325.699 49.0722 325.696 50.4266C325.692 52.4817 325.683 54.5368 325.675 56.5919C321.472 56.5919 317.269 56.5919 312.939 56.5919C312.864 53.5291 312.789 50.4664 312.712 47.3108C310.484 47.8052 310.484 47.8052 308.618 48.8954C308.58 49.5934 308.58 49.5934 308.618 50.2536C309.85 50.465 310.62 50.5271 311.802 50.0272C311.435 52.403 310.811 54.7194 310.21 57.0446C306.762 57.9271 302.734 57.9154 299.52 56.2347C297.597 54.9679 296.383 53.5153 295.726 51.3147C295.469 49.1145 295.648 47.0869 296.934 45.2169C299.074 42.6271 302.404 42.0515 305.562 41.5101C305.822 41.464 306.081 41.4179 306.349 41.3704C307.345 41.1937 308.342 41.0188 309.34 40.8512C309.563 40.8131 309.785 40.7749 310.015 40.7355C310.211 40.7026 310.407 40.6697 310.609 40.6358C311.248 40.4906 311.736 40.234 312.257 39.8407C312.105 39.1309 312.105 39.1309 311.541 38.898C307.509 37.7217 302.622 39.7076 298.839 40.9725C298.791 39.1737 298.976 37.4249 299.18 35.6387C299.212 35.3456 299.245 35.0525 299.278 34.7505C299.358 34.0325 299.439 33.3146 299.521 32.5969C300.41 32.4711 301.299 32.3463 302.189 32.2225C302.637 32.1599 303.084 32.0965 303.532 32.0332C309.684 31.1784 318.721 29.9249 323.884 34.2283Z" fill="#EC1B23"/>
<path d="M179.895 31.4651C188.075 31.4651 196.256 31.4651 204.684 31.4651C204.684 34.6773 204.684 37.8894 204.684 41.1989C200.527 44.5605 200.527 44.5605 199.141 45.5707C197.775 46.5708 196.459 47.6128 195.132 48.6691C198.284 48.7438 201.436 48.8185 204.684 48.8954C204.684 51.51 204.684 54.1245 204.684 56.8183C196.579 56.8183 188.473 56.8183 180.122 56.8183C180.122 47.7636 180.122 47.7636 181.856 45.7687C182.925 45.14 182.925 45.14 183.468 44.8696C184.288 44.4358 184.969 43.8538 185.68 43.2645C185.914 43.083 186.148 42.9015 186.39 42.7145C187.415 41.9153 188.43 41.1031 189.446 40.2934C186.595 40.2187 183.743 40.144 180.804 40.0671C180.696 39.194 180.588 38.3209 180.477 37.4214C180.444 37.1527 180.41 36.8841 180.376 36.6073C180.349 36.3848 180.321 36.1624 180.293 35.9332C180.266 35.7115 180.239 35.4898 180.21 35.2615C180.08 33.9984 179.992 32.7311 179.895 31.4651Z" fill="#EC1B23"/>
<path d="M379.12 31.6917C387.001 31.6917 394.881 31.6917 403 31.6917C403 34.8291 403 37.9666 403 41.1991C399.816 43.6892 396.632 46.1792 393.448 48.6693C396.6 48.744 399.752 48.8187 403 48.8956C403 51.5102 403 54.1247 403 56.8185C394.895 56.8185 386.789 56.8185 378.438 56.8185C378.438 53.8305 378.438 50.8424 378.438 47.7638C381.758 44.9673 381.758 44.9673 382.972 44.0287C383.204 43.849 383.436 43.6692 383.675 43.484C383.973 43.2529 384.271 43.0218 384.579 42.7837C385.629 41.962 386.68 41.1403 387.762 40.2936C384.911 40.2189 382.059 40.1442 379.12 40.0673C379.12 37.3033 379.12 34.5394 379.12 31.6917Z" fill="#EC1B23"/>
<path d="M260.858 23.5422C265.136 23.5422 269.414 23.5422 273.822 23.5422C273.822 34.5234 273.822 45.5045 273.822 56.8184C269.544 56.8184 265.266 56.8184 260.858 56.8184C260.858 45.8372 260.858 34.8561 260.858 23.5422Z" fill="#ED1B23"/>
<path d="M84.1478 23.5422C88.4257 23.5422 92.7036 23.5422 97.1111 23.5422C97.1111 34.5234 97.1111 45.5045 97.1111 56.8184C92.8333 56.8184 88.5554 56.8184 84.1478 56.8184C84.1478 45.8372 84.1478 34.8561 84.1478 23.5422Z" fill="#EC1B23"/>
<path d="M175.801 31.2387C176.166 31.9659 176.139 32.7689 176.2 33.5696C176.214 33.7567 176.229 33.9437 176.245 34.1365C176.276 34.533 176.307 34.9296 176.337 35.3262C176.383 35.9303 176.431 36.5344 176.479 37.1384C176.509 37.5239 176.539 37.9095 176.569 38.295C176.583 38.4748 176.598 38.6545 176.612 38.8397C176.684 39.7797 176.726 40.7081 176.71 41.6516C176.491 41.63 176.271 41.6085 176.044 41.5862C173.972 41.4106 172.18 41.3455 170.257 42.2317C169.1 43.3012 168.708 44.6051 168.626 46.1534C168.617 46.6503 168.612 47.1473 168.612 47.6442C168.608 47.878 168.605 48.1118 168.601 48.3527C168.589 49.2174 168.585 50.0821 168.58 50.9469C168.552 53.8532 168.552 53.8532 168.523 56.8183C164.245 56.8183 159.967 56.8183 155.56 56.8183C155.56 48.5264 155.56 40.2346 155.56 31.6914C159.538 31.6914 163.515 31.6914 167.613 31.6914C167.726 32.3638 167.726 32.3638 167.841 33.0496C167.998 32.9431 168.155 32.8366 168.316 32.7269C170.636 31.197 173.051 30.0069 175.801 31.2387Z" fill="#EC1B23"/>
<path d="M103.252 31.6917C107.83 31.6917 112.408 31.6917 117.125 31.6917C116.762 32.7755 116.439 33.5008 115.852 34.4496C115.772 34.5793 115.692 34.709 115.61 34.8427C115.44 35.1181 115.27 35.3931 115.099 35.6677C114.834 36.0947 114.571 36.523 114.309 36.9517C113.577 38.1463 112.841 39.3376 112.077 40.512C111.978 40.6661 111.88 40.8202 111.778 40.979C111.531 41.3653 111.278 41.7484 111.024 42.1311C110.669 42.9989 110.86 43.2835 111.212 44.1419C111.505 44.6704 111.805 45.1811 112.125 45.6929C112.31 45.9941 112.495 46.2954 112.68 46.5968C112.775 46.7516 112.871 46.9065 112.969 47.066C113.441 47.8341 113.902 48.608 114.364 49.382C114.549 49.6918 114.734 50.0015 114.919 50.3113C115.01 50.4648 115.102 50.6184 115.197 50.7765C115.384 51.0908 115.572 51.405 115.76 51.7192C116.039 52.1849 116.317 52.651 116.595 53.117C116.677 53.2543 116.76 53.3916 116.844 53.533C117.491 54.6177 118.101 55.7147 118.717 56.8185C114.064 56.8185 109.41 56.8185 104.616 56.8185C102.895 53.4834 102.895 53.4834 102.169 52.0568C101.673 51.0838 101.177 50.1113 100.674 49.1418C100.269 48.36 99.8684 47.5761 99.4709 46.7904C99.3185 46.4913 99.1645 46.1929 99.0089 45.8954C98.791 45.4781 98.579 45.0583 98.3681 44.6374C98.2459 44.3991 98.1237 44.1609 97.9978 43.9154C97.739 43.0555 97.8858 42.688 98.2483 41.8782C98.329 41.6967 98.4097 41.5152 98.4929 41.3282C98.5808 41.1502 98.6687 40.9723 98.7592 40.7889C98.8607 40.5823 98.9623 40.3756 99.0669 40.1627C99.1726 39.9497 99.2783 39.7367 99.3872 39.5173C99.4851 39.3184 99.583 39.1195 99.6839 38.9146C100.048 38.176 100.413 37.438 100.778 36.7C102.003 34.2209 102.003 34.2209 103.252 31.6917Z" fill="#EC1B22"/>
<path d="M280.516 31.6643C280.885 31.6651 280.885 31.6651 281.262 31.6658C281.539 31.6658 281.817 31.6659 282.103 31.6659C282.409 31.667 282.714 31.6682 283.019 31.6694C283.33 31.6698 283.641 31.6702 283.951 31.6704C284.771 31.6713 285.59 31.6735 286.409 31.676C287.244 31.6783 288.08 31.6793 288.915 31.6805C290.555 31.6829 292.195 31.6868 293.835 31.6915C293.501 32.5484 293.116 33.2966 292.628 34.0781C292.478 34.3194 292.328 34.5607 292.173 34.8093C292.054 34.9987 292.054 34.9987 291.933 35.1919C291.687 35.5855 291.442 35.9799 291.197 36.3746C290.451 37.5779 289.699 38.7777 288.937 39.9708C288.819 40.1564 288.702 40.3421 288.581 40.5334C288.365 40.875 288.146 41.2152 287.925 41.5537C287.399 42.3181 287.399 42.3181 287.282 43.2018C287.529 43.8509 287.861 44.4168 288.215 45.0145C288.33 45.2084 288.33 45.2084 288.447 45.4061C288.697 45.8295 288.949 46.2519 289.201 46.6743C289.375 46.9675 289.549 47.2607 289.723 47.554C291.032 49.7612 292.356 51.9604 293.688 54.1539C293.821 54.3728 293.953 54.5918 294.09 54.8173C294.206 55.0079 294.322 55.1985 294.442 55.3948C294.713 55.8588 294.959 56.338 295.2 56.8184C290.547 56.8184 285.894 56.8184 281.099 56.8184C278.328 51.2865 278.328 51.2865 277.46 49.5521C277.229 49.093 276.999 48.6339 276.769 48.1748C276.652 47.9409 276.535 47.7069 276.414 47.4659C276.299 47.2363 276.184 47.0068 276.065 46.7703C275.957 46.5547 275.848 46.3391 275.737 46.117C275.343 45.3654 274.909 44.6422 274.456 43.9248C274.152 43.1409 274.412 42.5487 274.728 41.8009C274.82 41.6191 274.912 41.4374 275.006 41.2501C275.162 40.9386 275.162 40.9386 275.321 40.6208C275.434 40.3996 275.547 40.1784 275.662 39.9504C275.778 39.7214 275.893 39.4925 276.012 39.2565C276.255 38.7737 276.499 38.2912 276.744 37.809C277.119 37.068 277.493 36.3261 277.867 35.584C278.103 35.1153 278.34 34.6466 278.576 34.178C278.689 33.955 278.801 33.7319 278.917 33.5021C279.021 33.2973 279.125 33.0925 279.232 32.8815C279.324 32.7004 279.416 32.5194 279.51 32.3328C279.854 31.6968 279.854 31.6968 280.516 31.6643Z" fill="#EC1B22"/>
<path d="M208.323 31.6917C212.526 31.6917 216.728 31.6917 221.059 31.6917C221.059 39.9835 221.059 48.2754 221.059 56.8185C216.856 56.8185 212.653 56.8185 208.323 56.8185C208.323 48.5266 208.323 40.2348 208.323 31.6917Z" fill="#EC1B23"/>
<path d="M328.859 46.4055C332.611 46.4055 336.364 46.4055 340.23 46.4055C340.23 49.8418 340.23 53.2781 340.23 56.8185C336.478 56.8185 332.725 56.8185 328.859 56.8185C328.859 53.3822 328.859 49.9459 328.859 46.4055Z" fill="#EC1B23"/>
<path d="M208.323 22.4104C212.526 22.4104 216.728 22.4104 221.059 22.4104C221.059 24.8755 221.059 27.3407 221.059 29.8805C216.856 29.8805 212.653 29.8805 208.323 29.8805C208.323 27.4154 208.323 24.9503 208.323 22.4104Z" fill="#EC1B23"/>
<path d="M133.045 71.7588C135.521 71.7588 137.998 71.7588 140.55 71.7588C140.475 72.2817 140.4 72.8046 140.322 73.3434C138.596 73.3434 136.87 73.3434 135.091 73.3434C134.941 74.6133 134.791 75.8832 134.637 77.1916C136.063 77.1916 137.489 77.1916 138.958 77.1916C138.958 77.5651 138.958 77.9386 138.958 78.3235C138.73 78.5498 138.73 78.5498 138.287 78.5755C138.098 78.5743 137.908 78.5732 137.713 78.5719C137.509 78.5712 137.304 78.5705 137.093 78.5697C136.878 78.5678 136.663 78.5659 136.442 78.564C136.226 78.563 136.01 78.5619 135.788 78.5609C135.252 78.5582 134.717 78.5545 134.182 78.5498C134.168 78.7681 134.154 78.9864 134.14 79.2113C134.121 79.4972 134.102 79.7832 134.082 80.0778C134.064 80.3615 134.045 80.6451 134.026 80.9373C133.954 81.719 133.954 81.719 133.727 82.6245C135.528 82.6245 137.329 82.6245 139.185 82.6245C139.11 83.1474 139.035 83.6703 138.958 84.209C136.556 84.209 134.154 84.209 131.68 84.209C131.68 81.9168 131.68 81.9168 131.781 81.0821C131.803 80.8948 131.825 80.7075 131.848 80.5146C131.872 80.32 131.896 80.1253 131.921 79.9248C131.946 79.7188 131.97 79.5128 131.996 79.3006C132.048 78.8689 132.1 78.4373 132.153 78.0057C132.235 77.3453 132.314 76.6847 132.393 76.024C132.444 75.6029 132.495 75.1819 132.546 74.7608C132.57 74.5639 132.594 74.367 132.618 74.1642C132.641 73.9805 132.664 73.7967 132.687 73.6075C132.707 73.4467 132.726 73.286 132.747 73.1204C132.818 72.6613 132.931 72.2094 133.045 71.7588Z" fill="#EC1B23"/>
<path d="M270.353 71.4758C270.535 71.484 270.717 71.4921 270.904 71.5005C271.041 71.511 271.179 71.5216 271.32 71.5324C270.993 72.5755 270.39 73.2513 269.643 74.0224C269.423 74.2532 269.203 74.4843 268.984 74.7157C268.879 74.8263 268.774 74.9369 268.666 75.0508C268.237 75.5188 267.844 76.0122 267.454 76.5125C267.597 76.4993 267.74 76.4862 267.887 76.4727C269.13 76.4075 270.178 76.4573 271.219 77.1889C271.975 78.2366 271.732 79.6027 271.547 80.8135C271.168 82.1507 270.442 82.9881 269.273 83.7563C267.915 84.4119 266.648 84.6241 265.18 84.209C264.202 83.6377 263.741 83.0036 263.36 81.9453C263.043 79.6152 264.042 77.8704 265.407 76.0597C269.065 71.4004 269.065 71.4004 270.353 71.4758ZM265.634 79.4553C265.348 80.412 265.337 80.8555 265.691 81.7897C266.063 82.4449 266.063 82.4449 266.771 82.8508C267.693 82.9527 268.191 82.956 268.989 82.4688C269.905 81.5476 269.905 81.5476 270.213 80.3201C270.162 79.4162 270.065 78.9115 269.486 78.1961C267.694 77.3231 266.575 77.8031 265.634 79.4553Z" fill="#ED1B22"/>
<path d="M252.444 71.9851C253.367 72.9038 253.78 73.8706 253.824 75.1764C253.663 77.8566 251.872 79.816 250.243 81.8017C249.697 82.473 249.178 83.1641 248.655 83.8527C248.35 84.209 248.35 84.209 247.895 84.4354C247.545 84.4511 247.194 84.4545 246.843 84.4495C246.564 84.4465 246.564 84.4465 246.28 84.4434C246.138 84.4407 245.995 84.4381 245.848 84.4354C246.208 83.6189 246.712 82.9962 247.284 82.3132C247.466 82.0952 247.647 81.8772 247.835 81.6527C248.005 81.4504 248.175 81.2482 248.35 81.0399C248.542 80.8101 248.542 80.8101 248.737 80.5756C248.986 80.277 249.237 79.9792 249.487 79.6817C249.353 79.6621 249.218 79.6426 249.079 79.6224C247.814 79.3985 247.138 79.1291 246.303 78.0971C245.682 77.1693 245.712 76.4695 245.848 75.3807C246.265 73.8675 247.026 72.8337 248.35 71.9851C249.683 71.377 251.138 71.2473 252.444 71.9851ZM248.35 73.5697C247.765 74.4929 247.505 75.1959 247.668 76.2861C248.111 77.0502 248.397 77.3516 249.231 77.6585C250.344 77.6364 250.954 77.0897 251.719 76.3286C252.103 75.6231 252.188 75.0489 252.216 74.2488C251.934 73.5825 251.701 73.2337 251.107 72.8199C249.879 72.4243 249.258 72.666 248.35 73.5697Z" fill="#ED1B22"/>
<path d="M233.567 71.7588C234.25 72.2579 234.595 72.5974 234.889 73.3858C234.903 73.5959 234.917 73.806 234.932 74.0224C234.943 74.1911 234.955 74.3598 234.966 74.5335C235.058 76.9183 234.115 78.4096 232.7 80.2476C232.563 80.4294 232.425 80.6112 232.284 80.7985C232.012 81.1583 231.738 81.5174 231.464 81.8755C231.198 82.2241 230.935 82.5749 230.675 82.9277C230.554 83.0914 230.434 83.2551 230.309 83.4238C230.203 83.5698 230.096 83.7159 229.986 83.8664C229.701 84.209 229.701 84.209 229.246 84.4354C228.896 84.4511 228.545 84.4545 228.194 84.4495C227.915 84.4465 227.915 84.4465 227.631 84.4433C227.488 84.4407 227.346 84.4381 227.199 84.4354C227.549 83.244 228.331 82.4646 229.147 81.5633C229.417 81.261 229.688 80.9583 229.958 80.6552C230.137 80.4562 230.137 80.4562 230.321 80.2531C230.631 79.9104 230.631 79.9104 230.838 79.4553C230.43 79.4903 230.43 79.4903 230.014 79.526C229.246 79.5287 228.844 79.4199 228.251 78.9318C227.429 78.0937 227.13 77.6268 227.114 76.47C227.148 74.8488 227.603 73.8583 228.734 72.7067C230.296 71.6603 231.699 71.2347 233.567 71.7588ZM230.085 73.1594C229.288 73.9897 229.064 74.3457 228.919 75.4797C228.953 76.3136 228.953 76.3136 229.516 76.9369C230.322 77.5511 230.322 77.5511 231.293 77.6443C232.169 77.2536 232.707 76.9385 233.34 76.2295C233.657 75.3615 233.608 74.6753 233.34 73.7961C232.846 73.0591 232.513 72.9167 231.662 72.6501C230.802 72.5914 230.802 72.5914 230.085 73.1594Z" fill="#ED1B22"/>
<path d="M155.56 71.7588C156.202 72.2523 156.797 72.7808 157.379 73.3434C157.229 73.7169 157.079 74.0904 156.924 74.4753C156.273 74.3852 155.873 74.3199 155.361 73.8952C154.656 73.4205 154.118 73.4958 153.286 73.5698C152.676 73.7665 152.452 73.918 152.077 74.4328C151.864 75.1101 151.887 75.3921 152.148 76.0598C152.698 76.4798 153.306 76.7732 153.925 77.0785C156.062 78.1483 156.062 78.1483 156.697 79.229C156.902 80.4201 156.818 81.5779 156.441 82.7236C155.657 83.7899 154.769 84.4752 153.513 84.8882C151.823 85.0853 150.571 84.9973 149.192 83.9827C149.042 83.8333 148.892 83.6839 148.737 83.53C148.817 83.0178 148.959 82.6356 149.192 82.1718C150.012 82.0758 150.29 82.1445 150.983 82.6245C151.844 83.1733 152.28 83.2228 153.286 83.0773C154.202 82.4894 154.783 81.9279 155.02 80.8419C154.953 80.1416 154.953 80.1416 154.543 79.8347C153.887 79.4232 153.205 79.0766 152.514 78.7285C151.395 78.1486 150.625 77.713 150.102 76.5126C149.857 74.9627 150.103 73.9299 151.011 72.6643C152.135 71.3466 154.033 71.027 155.56 71.7588Z" fill="#ED1B22"/>
<path d="M166.704 71.3059C169.856 71.3059 173.008 71.3059 176.256 71.3059C176.256 72.6641 176.256 72.6641 176.028 73.1169C174.827 73.1169 173.627 73.1169 172.389 73.1169C172.348 73.4813 172.307 73.8458 172.264 74.2213C171.883 77.5551 171.472 80.8833 171.025 84.2089C170.349 84.2089 169.674 84.2089 168.978 84.2089C169.103 83.0211 169.229 81.8334 169.354 80.6456C169.397 80.2424 169.439 79.8391 169.482 79.4358C169.543 78.853 169.605 78.2703 169.667 77.6875C169.685 77.5099 169.704 77.3323 169.723 77.1492C169.849 75.9555 169.981 74.7625 170.115 73.5696C168.914 73.4949 167.714 73.4202 166.476 73.3432C166.551 72.6709 166.626 71.9986 166.704 71.3059Z" fill="#EC1B23"/>
<path d="M214.691 71.5323C214.755 73.5461 214.539 75.5101 214.315 77.5079C214.25 78.0869 214.187 78.666 214.124 79.2452C214.084 79.6144 214.043 79.9836 214.002 80.3527C213.984 80.5253 213.965 80.6979 213.946 80.8758C213.867 81.5677 213.776 82.1879 213.554 82.8507C214.304 82.8507 215.055 82.8507 215.828 82.8507C215.753 83.2989 215.678 83.7472 215.6 84.2089C213.499 84.2089 211.398 84.2089 209.233 84.2089C209.345 83.5366 209.345 83.5366 209.46 82.8507C210.286 82.8507 211.111 82.8507 211.962 82.8507C211.973 82.6503 211.984 82.4498 211.995 82.2433C212.104 80.4602 212.262 78.6943 212.494 76.9228C212.608 76.0248 212.665 75.1538 212.644 74.2487C212.438 74.4243 212.438 74.4243 212.228 74.6033C212.046 74.7524 211.865 74.9016 211.677 75.0552C211.408 75.2797 211.408 75.2797 211.134 75.5088C210.597 75.8333 210.597 75.8333 210.075 75.7688C209.947 75.7154 209.819 75.662 209.687 75.607C209.612 75.3082 209.537 75.0093 209.46 74.7015C209.934 74.3003 210.407 73.8995 210.881 73.4989C211.081 73.3293 211.081 73.3293 211.286 73.1563C213.319 71.4392 213.319 71.4392 214.691 71.5323Z" fill="#EC1B23"/>
<path d="M183.491 82.1416C183.655 82.1422 183.819 82.1428 183.988 82.1434C184.152 82.1428 184.317 82.1422 184.486 82.1416C184.898 82.1717 184.898 82.1717 185.125 82.398C185.168 83.1762 185.168 83.1762 185.125 83.9826C184.975 84.132 184.825 84.2814 184.67 84.4353C183.175 84.3048 183.175 84.3048 182.851 83.9826C182.823 83.1903 182.823 83.1903 182.851 82.398C183.078 82.1717 183.078 82.1717 183.491 82.1416Z" fill="#EC1B22"/>
</g>
<defs>
<clipPath id="clip0_48_617">
<rect width="403" height="91" fill="white"/>
</clipPath>
</defs>
</svg>
