
<svg width="302" height="115" viewBox="0 0 302 115" fill="none" xmlns="http://www.w3.org/2000/svg">
<g clip-path="url(#clip0_48_594)">
<path d="M180.84 11.4701C183.906 14.4148 185.206 19.2484 186.593 23.1497C186.761 23.6108 186.929 24.0719 187.102 24.547C188.579 28.6504 189.662 32.4275 188.331 36.7162C185.58 40.7837 178.748 42.3 174.369 43.8138C173.887 43.9836 173.405 44.1535 172.909 44.3284C169.378 45.4987 165.849 46.4196 162.355 44.7721C158.925 41.6624 157.657 37.9452 156.153 33.6615C155.939 33.0808 155.726 32.5002 155.505 31.902C152.474 23.3799 152.474 23.3799 154.026 19.4961C156.493 15.3738 162.215 13.9595 166.489 12.5482C167.319 12.2651 167.319 12.2651 168.164 11.9764C176.796 9.0602 176.796 9.0602 180.84 11.4701Z" fill="#00CC00"/>
<path d="M100.008 11.5898C102.41 13.9045 103.388 17.0549 104.502 20.1249C104.65 20.526 104.799 20.9271 104.952 21.3404C105.433 22.6484 105.899 23.9608 106.359 25.2759C106.508 25.6892 106.657 26.1025 106.81 26.5283C107.833 29.5567 108.582 32.8254 107.53 35.9517C105.921 39.1008 103.096 40.3529 99.8971 41.4684C99.3072 41.6763 98.7174 41.8841 98.1097 42.0983C97.494 42.3108 96.8783 42.5232 96.2625 42.7356C95.641 42.9533 95.0196 43.1713 94.3984 43.3898C85.3049 46.5757 85.3049 46.5757 81.3123 44.802C78.2429 41.88 76.8544 38.0461 75.4101 34.1405C75.2232 33.6575 75.0363 33.1745 74.8437 32.6768C73.4017 28.8231 72.0621 24.774 72.6538 20.634C74.6525 16.3777 79.1245 14.8453 83.3122 13.3192C84.2622 12.9889 85.2135 12.662 86.1659 12.3384C86.646 12.1704 87.1261 12.0024 87.6208 11.8293C96.2238 8.86794 96.2238 8.86794 100.008 11.5898Z" fill="#FF0000"/>
<path d="M136.17 12.7878C136.752 12.9901 137.334 13.1924 137.935 13.4008C145.785 16.2206 145.785 16.2207 147.761 19.0664C149.793 23.5772 147.697 28.5372 146.087 32.8529C145.903 33.3665 145.719 33.8801 145.53 34.4092C142.227 43.4367 142.227 43.4367 138.057 45.5209C134.042 46.0307 130.573 44.8507 126.822 43.5443C126.271 43.3627 125.719 43.1811 125.151 42.994C115.797 39.8155 115.797 39.8155 113.759 36.7761C112.344 32.7344 113.243 29.1304 114.658 25.2162C114.812 24.7775 114.965 24.3389 115.123 23.887C115.568 22.6294 116.025 21.3767 116.486 20.125C116.658 19.6469 116.658 19.6469 116.834 19.1592C118.152 15.5335 119.567 12.216 123.077 10.3021C127.693 9.5923 131.886 11.2267 136.17 12.7878Z" fill="#FFB600"/>
<path d="M217.212 12.7877C217.799 12.99 218.385 13.1922 218.989 13.4007C222.948 14.8189 226.857 16.389 229.136 20.1249C229.792 24.1676 228.757 27.8496 227.399 31.6249C227.224 32.1257 227.05 32.6265 226.87 33.1424C223.205 43.4541 223.205 43.4541 219.07 45.5207C214.237 46.3954 209.766 44.2896 205.348 42.5987C204.339 42.2157 203.326 41.8505 202.307 41.4946C196.32 39.3466 196.32 39.3466 194.564 36.5061C192.842 32.2249 194.645 27.4537 196.15 23.3892C196.336 22.8571 196.522 22.325 196.713 21.7767C198.279 17.4003 199.779 13.2306 203.73 10.5416C208.193 9.0611 213.049 11.2763 217.212 12.7877Z" fill="#00C5FF"/>
<path d="M7.19036 69.4791C8.53922 69.3393 9.78098 69.2893 11.1301 69.305C11.5202 69.3048 11.9102 69.3045 12.3121 69.3043C13.1374 69.3054 13.9626 69.3101 14.7879 69.318C16.0536 69.3293 17.3189 69.3278 18.5846 69.3247C19.3855 69.3273 20.1863 69.3307 20.9871 69.335C21.3671 69.3345 21.7471 69.3341 22.1386 69.3336C24.8161 69.3684 24.8161 69.3684 25.8856 70.4374C25.9695 71.6397 25.9967 72.7883 25.9792 73.99C25.9779 74.3396 25.9765 74.6892 25.9751 75.0494C25.9697 76.1676 25.9577 77.2855 25.9455 78.4036C25.9407 79.161 25.9363 79.9184 25.9324 80.6759C25.9218 82.5339 25.9053 84.3919 25.8856 86.2499C26.6864 86.2054 26.6864 86.2054 27.5035 86.1601C28.3636 86.2045 28.3636 86.2045 29.2412 86.2499C30.6701 88.3924 30.3764 90.4376 30.3796 92.9583C30.3914 93.4425 30.4031 93.9268 30.4152 94.4257C30.418 95.1224 30.418 95.1224 30.4208 95.8333C30.4248 96.2582 30.4287 96.6832 30.4328 97.121C30.1999 98.2291 30.1999 98.2291 29.2938 99.0856C27.5683 100.077 25.8977 99.9108 23.9681 99.6666C22.7398 99.2174 22.7398 99.2174 22.0507 98.2291C22.0507 96.806 22.0507 95.3828 22.0507 93.9166C17.305 93.9166 12.5592 93.9166 7.66972 93.9166C7.66972 95.3397 7.66972 96.7628 7.66972 98.2291C6.71099 99.1874 6.71099 99.1874 5.27103 99.2979C4.70809 99.2911 4.14516 99.2843 3.56516 99.2773C2.7189 99.2726 2.7189 99.2726 1.85555 99.2679C0.479248 99.1874 0.479248 99.1874 -0.000116926 98.7083C-0.0420021 97.82 -0.0514001 96.9302 -0.0469299 96.041C-0.0453851 95.5021 -0.0438403 94.9632 -0.0422486 94.4079C-0.0382321 93.8406 -0.0342155 93.2732 -0.0300772 92.6887C-0.0279145 92.1195 -0.0257517 91.5503 -0.0235234 90.9639C-0.0178519 89.5523 -0.00995008 88.1407 -0.000116926 86.7291C0.530686 86.5475 1.06149 86.3659 1.60838 86.1788C2.96778 85.5909 3.29047 85.4024 4.06887 84.0749C4.99674 80.6024 5.59477 77.2004 5.90452 73.6238C6.06278 71.8811 6.19862 70.9661 7.19036 69.4791ZM14.3808 77.1458C14.0711 78.3037 13.7615 79.4617 13.4521 80.6197C13.3209 81.1098 13.3209 81.1098 13.1871 81.6099C12.7746 83.1541 12.3718 84.6993 11.984 86.2499C13.7241 86.2499 15.4642 86.2499 17.257 86.2499C17.257 83.2455 17.257 80.2412 17.257 77.1458C16.3079 77.1458 15.3587 77.1458 14.3808 77.1458Z" fill="#0074ED"/>
<path d="M295.793 69.4643C298.559 70.9271 300.533 72.8577 301.684 75.7945C302.637 79.865 302.659 84.5593 300.622 88.2847C300.444 88.562 300.266 88.8393 300.083 89.1251C299.667 89.7773 299.667 89.7773 299.244 90.4428C296.753 92.932 294.18 94.3489 290.652 94.4427C290.001 94.4395 289.349 94.4339 288.698 94.4259C288.363 94.4237 288.029 94.4215 287.685 94.4193C286.864 94.4137 286.043 94.4051 285.222 94.3959C285.21 94.9963 285.197 95.5967 285.185 96.2152C285.158 97.0064 285.13 97.7975 285.102 98.5886C285.092 99.1816 285.092 99.1816 285.082 99.7865C285.008 101.61 284.955 102.71 283.911 104.243C282.638 105.058 281.931 105.182 280.429 105.147C280.023 105.147 279.618 105.146 279.2 105.145C277.747 104.887 277.157 104.548 276.114 103.5C275.877 102.078 275.877 102.078 275.881 100.317C275.88 99.9959 275.878 99.6748 275.876 99.3439C275.872 98.2827 275.883 97.2221 275.893 96.161C275.894 95.424 275.895 94.6871 275.895 93.9502C275.896 92.4062 275.904 90.8624 275.917 89.3185C275.933 87.337 275.937 85.3558 275.936 83.3743C275.936 81.8529 275.942 80.3316 275.949 78.8103C275.952 78.0795 275.954 77.3488 275.954 76.618C275.956 75.5981 275.965 74.5784 275.975 73.5586C275.979 72.9777 275.982 72.3968 275.986 71.7983C276.114 70.4376 276.114 70.4376 277.073 69.4792C278.584 69.3688 278.584 69.3688 280.399 69.3894C281.295 69.394 281.295 69.394 282.209 69.3988C283.784 69.4792 283.784 69.4792 285.222 69.9584C286.154 69.5955 287.085 69.2319 288.014 68.8634C290.692 67.984 293.234 68.3788 295.793 69.4643ZM284.743 78.1042C284.743 80.7924 284.743 83.4805 284.743 86.2501C286.521 86.8427 288.168 86.9993 290.016 86.7292C291.363 85.8698 292.177 85.2827 292.892 83.8542C293.149 81.7113 293.151 80.0381 292.143 78.1042C289.449 75.8948 287.719 76.6169 284.743 78.1042Z" fill="#0074ED"/>
<path d="M235.788 68.8502C236.202 68.8323 236.616 68.8144 237.042 68.7959C238.729 69.0822 239.155 69.5255 240.162 70.9166C240.447 72.4928 240.419 74.0504 240.4 75.6484C240.4 76.1091 240.401 76.5698 240.402 77.0444C240.401 78.0175 240.395 78.9906 240.386 79.9637C240.372 81.4529 240.376 82.9413 240.382 84.4306C240.379 85.3764 240.375 86.3223 240.37 87.2681C240.371 87.7134 240.373 88.1587 240.374 88.6174C240.329 91.6756 240.329 91.6756 239.522 93.2402C238.27 94.3009 237.182 94.1357 235.578 94.0963C235.024 94.0901 234.469 94.0839 233.898 94.0776C232.492 93.9166 232.492 93.9166 231.533 92.9583C231.38 91.9697 231.38 91.9697 231.335 90.7683C231.307 90.1244 231.307 90.1244 231.279 89.4674C231.264 89.0184 231.249 88.5693 231.234 88.1067C231.206 87.4276 231.206 87.4276 231.178 86.7347C231.132 85.6149 231.091 84.495 231.054 83.3749C230.81 83.6862 230.567 83.9975 230.316 84.3183C229.986 84.7185 229.656 85.1188 229.316 85.5312C228.832 86.1315 228.832 86.1315 228.339 86.7441C227.219 87.6874 227.219 87.6874 225.762 87.9214C224.132 87.6527 223.637 87.3091 222.545 86.1002C222.271 85.8055 221.996 85.5109 221.714 85.2074C220.987 84.3333 220.987 84.3333 220.029 82.8958C220.019 83.1956 220.01 83.4954 220 83.8043C219.954 85.1587 219.902 86.5129 219.849 87.8671C219.827 88.575 219.827 88.575 219.804 89.2971C219.785 89.748 219.767 90.1989 219.748 90.6635C219.733 91.08 219.718 91.4966 219.702 91.9258C219.549 92.9583 219.549 92.9583 218.59 93.9166C217.167 94.0439 217.167 94.0439 215.475 94.0364C214.916 94.0388 214.357 94.0413 213.782 94.0439C212.359 93.9166 212.359 93.9166 211.4 92.9583C211.281 91.9731 211.281 91.9731 211.284 90.7457C211.282 90.2869 211.281 89.828 211.279 89.3553C211.282 88.8586 211.286 88.362 211.289 87.8503C211.29 87.3422 211.29 86.8342 211.29 86.3108C211.292 85.2357 211.295 84.1607 211.301 83.0856C211.31 81.4335 211.311 79.7815 211.311 78.1294C211.313 77.0871 211.316 76.0449 211.319 75.0026C211.32 74.505 211.321 74.0074 211.321 73.4947C211.324 73.0373 211.327 72.58 211.33 72.1088C211.332 71.7041 211.334 71.2995 211.336 70.8826C211.4 69.9583 211.4 69.9583 211.879 69.4791C217.885 68.8204 217.885 68.8204 220.175 70.093C221.027 70.9567 221.719 71.8471 222.425 72.8333C223.05 73.5464 223.679 74.2553 224.313 74.9596C224.803 75.5275 225.293 76.0961 225.781 76.6666C227.811 74.703 229.673 72.6091 231.539 70.4898C232.935 69.0094 233.805 68.906 235.788 68.8502Z" fill="#0074ED"/>
<path d="M141.503 69.3516C142.407 69.3554 142.407 69.3554 143.33 69.3591C143.933 69.3567 144.536 69.3542 145.158 69.3516C146.686 69.4789 146.686 69.4789 147.644 70.4373C147.797 71.4698 147.797 71.4698 147.843 72.732C147.861 73.1829 147.88 73.6338 147.899 74.0984C147.914 74.5703 147.929 75.0422 147.944 75.5284C147.963 76.004 147.981 76.4796 148 76.9696C148.046 78.1463 148.087 79.3229 148.124 80.4998C148.322 80.2 148.52 79.9001 148.725 79.5913C149.622 78.2362 150.521 76.8823 151.419 75.5284C151.732 75.0565 152.044 74.5846 152.365 74.0984C152.665 73.6475 152.964 73.1966 153.273 72.732C153.549 72.3155 153.826 71.8989 154.11 71.4698C154.835 70.4373 154.835 70.4373 155.794 69.4789C157.094 69.3711 158.329 69.3235 159.629 69.3292C159.982 69.3215 160.336 69.3137 160.7 69.3058C161.726 69.3049 161.726 69.3049 163.464 69.4789C164.464 70.9785 164.544 71.3287 164.554 73.0362C164.561 73.6766 164.561 73.6766 164.568 74.33C164.567 74.7897 164.567 75.2494 164.566 75.7231C164.568 76.1962 164.571 76.6694 164.573 77.1569C164.575 78.1574 164.576 79.1579 164.574 80.1584C164.572 81.6918 164.583 83.2247 164.595 84.758C164.597 85.7294 164.597 86.7008 164.596 87.6723C164.601 88.132 164.605 88.5917 164.61 89.0654C164.607 89.4923 164.604 89.9193 164.601 90.3592C164.601 90.7347 164.601 91.1102 164.602 91.4971C164.374 92.7422 163.99 93.1655 162.984 93.9164C161.514 94.0905 161.514 94.0905 159.838 94.0662C159.007 94.0634 159.007 94.0634 158.159 94.0605C156.752 93.9164 156.752 93.9164 155.794 92.9581C155.641 91.9256 155.641 91.9256 155.595 90.6633C155.567 89.987 155.567 89.987 155.539 89.297C155.517 88.5891 155.517 88.5891 155.494 87.8669C155.466 87.1535 155.466 87.1535 155.438 86.4257C155.393 85.2491 155.352 84.0725 155.314 82.8956C155.102 83.2124 154.889 83.5292 154.669 83.8557C153.708 85.2841 152.744 86.7103 151.779 88.1365C151.444 88.6353 151.109 89.134 150.764 89.6479C150.443 90.122 150.121 90.596 149.79 91.0845C149.494 91.5236 149.198 91.9627 148.893 92.4152C148.124 93.4373 148.124 93.4373 147.165 93.9164C146.058 93.9877 144.949 94.0225 143.84 94.0362C142.943 94.0547 142.943 94.0547 142.029 94.0737C140.454 93.9164 140.454 93.9164 139.648 93.3236C138.843 92.2473 138.836 91.6435 138.837 90.3076C138.834 89.8695 138.831 89.4314 138.828 88.98C138.835 88.2725 138.835 88.2725 138.842 87.5506C138.842 87.0657 138.841 86.5808 138.841 86.0811C138.842 85.056 138.847 84.031 138.855 83.0059C138.866 81.4326 138.865 79.8597 138.861 78.2864C138.864 77.2916 138.867 76.2968 138.872 75.3019C138.871 74.8292 138.871 74.3566 138.87 73.8696C138.875 73.433 138.88 72.9964 138.884 72.5466C138.886 72.1615 138.889 71.7764 138.891 71.3796C139.122 69.6384 139.85 69.4893 141.503 69.3516Z" fill="#0074ED"/>
<path d="M247.922 69.352C248.826 69.3557 248.826 69.3557 249.749 69.3595C250.352 69.357 250.955 69.3545 251.577 69.352C253.105 69.4792 253.105 69.4792 254.063 70.4376C254.216 71.4701 254.216 71.4701 254.262 72.7323C254.281 73.1832 254.299 73.6341 254.318 74.0987C254.333 74.5706 254.348 75.0425 254.363 75.5287C254.382 76.0043 254.4 76.4799 254.419 76.97C254.465 78.1466 254.506 79.3232 254.543 80.5001C254.789 80.127 254.789 80.127 255.04 79.7464C255.792 78.6092 256.546 77.4733 257.299 76.3373C257.557 75.946 257.816 75.5547 258.082 75.1516C258.587 74.3911 259.097 73.634 259.613 72.8806C260.162 72.0713 260.684 71.2438 261.198 70.4114C262.451 69.2608 263.387 69.2049 265.061 69.2219C265.406 69.2376 265.752 69.2534 266.108 69.2696C266.457 69.2724 266.806 69.2752 267.166 69.278C269.741 69.3375 269.741 69.3375 270.841 70.4376C270.963 71.3799 270.963 71.3799 270.965 72.5469C270.968 72.9835 270.971 73.4201 270.974 73.8699C270.973 74.3426 270.971 74.8152 270.969 75.3022C270.97 76.029 270.97 76.029 270.971 76.7703C270.972 77.7963 270.97 78.8222 270.966 79.8481C270.961 81.4204 270.966 82.9923 270.972 84.5646C270.972 85.56 270.97 86.5555 270.969 87.5509C270.971 88.0227 270.972 88.4944 270.974 88.9804C270.971 89.4185 270.968 89.8565 270.965 90.3079C270.965 90.6934 270.964 91.0789 270.963 91.476C270.841 92.4792 270.841 92.4792 269.883 93.9167C268.355 94.0908 268.355 94.0908 266.527 94.0665C265.622 94.0637 265.622 94.0637 264.699 94.0609C263.171 93.9167 263.171 93.9167 262.213 92.9584C262.06 91.9259 262.06 91.9259 262.014 90.6637C261.986 89.9873 261.986 89.9873 261.958 89.2973C261.936 88.5894 261.936 88.5894 261.913 87.8673C261.885 87.1539 261.885 87.1539 261.857 86.426C261.812 85.2494 261.771 84.0728 261.733 82.8959C261.538 83.1787 261.342 83.4615 261.14 83.7528C260.251 85.0355 259.359 86.3166 258.468 87.5977C258.16 88.0428 257.852 88.4878 257.534 88.9463C257.236 89.3741 256.938 89.8018 256.631 90.2425C256.22 90.8335 256.22 90.8335 255.802 91.4363C255.104 92.3695 254.487 93.1811 253.584 93.9167C252.33 94.0467 251.209 94.096 249.959 94.0665C249.63 94.068 249.302 94.0696 248.964 94.0712C246.522 94.0448 246.522 94.0448 245.435 92.9584C245.313 91.9946 245.313 91.9946 245.311 90.7975C245.308 90.3498 245.305 89.902 245.302 89.4408C245.304 88.9561 245.306 88.4714 245.308 87.9721C245.307 87.4758 245.306 86.9796 245.305 86.4683C245.304 85.4178 245.306 84.3673 245.31 83.3168C245.315 81.7046 245.31 80.0927 245.304 78.4805C245.304 77.4616 245.306 76.4428 245.308 75.4239C245.306 74.9392 245.304 74.4546 245.302 73.9552C245.305 73.5075 245.308 73.0598 245.311 72.5985C245.312 72.2034 245.312 71.8084 245.313 71.4014C245.535 69.6464 246.253 69.4909 247.922 69.352Z" fill="#0074ED"/>
<path d="M170.654 69.4791C172.182 69.305 172.182 69.305 174.009 69.3293C174.914 69.3321 174.914 69.3321 175.837 69.3349C177.365 69.4791 177.365 69.4791 178.324 70.4374C178.477 71.4699 178.477 71.4699 178.522 72.7321C178.541 73.183 178.559 73.634 178.578 74.0985C178.593 74.5704 178.608 75.0423 178.623 75.5285C178.642 76.0041 178.66 76.4798 178.68 76.9698C178.725 78.1464 178.766 79.323 178.803 80.4999C179.018 80.1831 179.234 79.8662 179.456 79.5398C180.426 78.1125 181.397 76.6857 182.368 75.259C182.707 74.7602 183.046 74.2615 183.396 73.7476C183.718 73.2735 184.041 72.7994 184.374 72.311C184.822 71.6523 184.822 71.6523 185.279 70.9803C185.994 69.9582 185.994 69.9582 186.473 69.4791C187.747 69.4184 189.003 69.3903 190.278 69.3892C190.811 69.3804 190.811 69.3804 191.356 69.3714C192.285 69.3689 193.215 69.4206 194.143 69.4791C195.321 70.6571 195.222 70.9796 195.226 72.5983C195.229 73.046 195.232 73.4938 195.235 73.955C195.233 74.4397 195.231 74.9244 195.229 75.4237C195.23 76.1681 195.23 76.1681 195.232 76.9275C195.232 77.978 195.231 79.0285 195.227 80.079C195.221 81.6912 195.226 83.3031 195.233 84.9153C195.232 85.9342 195.231 86.953 195.229 87.9719C195.231 88.4566 195.233 88.9412 195.235 89.4406C195.232 89.8883 195.229 90.336 195.226 90.7973C195.225 91.1924 195.224 91.5874 195.223 91.9944C195.102 92.9582 195.102 92.9582 194.143 93.9166C192.615 94.0438 192.615 94.0438 190.787 94.0363C190.184 94.0388 189.581 94.0413 188.96 94.0438C187.432 93.9166 187.432 93.9166 186.473 92.9582C186.32 91.9257 186.32 91.9257 186.275 90.6635C186.247 89.9871 186.247 89.9871 186.218 89.2971C186.196 88.5892 186.196 88.5892 186.173 87.8671C186.146 87.1537 186.146 87.1537 186.117 86.4258C186.072 85.2492 186.031 84.0726 185.994 82.8957C185.781 83.2125 185.568 83.5294 185.349 83.8558C184.388 85.2843 183.423 86.7104 182.458 88.1366C182.123 88.6354 181.788 89.1341 181.443 89.648C181.122 90.1221 180.801 90.5962 180.47 91.0846C180.173 91.5237 179.877 91.9629 179.572 92.4153C178.803 93.4374 178.803 93.4374 177.844 93.9166C176.737 93.9879 175.628 94.0226 174.519 94.0363C173.623 94.0549 173.623 94.0549 172.708 94.0738C171.133 93.9166 171.133 93.9166 170.327 93.3205C169.53 92.2588 169.516 91.6783 169.517 90.3593C169.514 89.9324 169.511 89.5054 169.508 89.0655C169.512 88.6058 169.517 88.1461 169.521 87.6724C169.521 86.9627 169.521 86.9627 169.52 86.2386C169.521 85.2381 169.526 84.2376 169.534 83.2371C169.545 81.7038 169.544 80.1708 169.541 78.6375C169.543 77.6661 169.547 76.6946 169.551 75.7232C169.551 75.2635 169.55 74.8037 169.55 74.3301C169.554 73.9031 169.559 73.4762 169.564 73.0363C169.566 72.6608 169.568 72.2852 169.57 71.8983C169.695 70.9166 169.695 70.9166 170.654 69.4791Z" fill="#0074ED"/>
<path d="M52.7302 70.9167C55.1361 73.1194 56.8154 75.6381 57.1961 78.9408C57.3428 82.5029 57.3428 82.5029 56.2726 83.9123C54.7602 85.1007 53.8091 85.071 51.8988 85.1045C51.2777 85.1199 50.6567 85.1354 50.0169 85.1513C49.3634 85.1583 48.7099 85.1652 48.0564 85.1719C47.3953 85.1854 46.7343 85.1997 46.0734 85.2149C44.4573 85.2488 42.8417 85.274 41.2254 85.2917C44.3327 87.8255 47.8231 87.2206 51.6067 86.8508C51.9774 86.8107 52.3482 86.7705 52.7302 86.7292C53.8947 88.2106 54.6078 89.2058 54.7974 91.1016C53.9679 92.9178 53.1937 93.3586 51.3557 94.0645C49.3951 94.4971 47.5133 94.5862 45.5097 94.6055C44.9666 94.6128 44.9666 94.6128 44.4125 94.6202C40.6348 94.5619 37.5702 93.4801 34.7727 90.92C32.2352 88.0423 31.4626 84.6244 31.5014 80.8818C31.8338 77.6231 33.0626 74.1505 35.473 71.875C40.4235 68.0312 47.4371 67.0761 52.7302 70.9167ZM41.2254 77.1458C40.909 77.6202 40.5926 78.0946 40.2667 78.5833C42.9559 78.5833 45.6451 78.5833 48.4159 78.5833C47.428 76.5219 47.428 76.5219 45.5397 75.7083C43.4681 75.7083 42.8666 75.9802 41.2254 77.1458Z" fill="#0074ED"/>
<path d="M112.741 69.3518C113.645 69.3555 113.645 69.3555 114.568 69.3593C115.171 69.3568 115.774 69.3544 116.396 69.3518C117.924 69.4791 117.924 69.4791 118.883 70.4374C119.029 71.7476 119.128 73.0167 119.182 74.3306C119.201 74.692 119.219 75.0533 119.238 75.4256C119.284 76.3182 119.323 77.2111 119.362 78.1041C119.534 77.8598 119.705 77.6156 119.882 77.3639C120.657 76.2626 121.433 75.1619 122.208 74.0611C122.478 73.6766 122.749 73.2921 123.027 72.896C123.285 72.53 123.543 72.164 123.809 71.7869C124.048 71.4482 124.286 71.1094 124.532 70.7604C125.114 69.9583 125.114 69.9583 125.594 69.4791C126.701 69.4189 127.81 69.3949 128.919 69.3892C129.527 69.3824 130.134 69.3757 130.76 69.3687C132.305 69.4791 132.305 69.4791 133.263 70.4374C133.53 72.297 133.414 73.089 132.353 74.6619C131.962 75.0962 131.57 75.5304 131.166 75.9778C129.101 78.2135 129.101 78.2135 127.99 80.9791C129.057 83.2799 130.82 85.2588 133.204 86.19C133.698 86.3679 134.192 86.5458 134.702 86.7291C135.469 89.0308 135.572 91.411 134.732 93.7069C133.055 94.8747 131.395 94.6967 129.429 94.3958C124.473 93.0785 121.81 87.9842 119.362 83.8541C119.338 84.46 119.315 85.066 119.291 85.6903C119.255 86.4858 119.219 87.2813 119.182 88.0767C119.16 88.6757 119.16 88.6757 119.137 89.2868C119.119 89.6713 119.1 90.0558 119.081 90.452C119.066 90.8058 119.051 91.1596 119.035 91.5241C118.883 92.4791 118.883 92.4791 117.924 93.9166C116.518 94.0907 116.518 94.0907 114.838 94.0663C114.285 94.0645 113.732 94.0626 113.162 94.0607C111.692 93.9166 111.692 93.9166 110.254 92.9583C110.075 91.9945 110.075 91.9945 110.075 90.7973C110.072 90.3496 110.07 89.9019 110.066 89.4406C110.071 88.9559 110.075 88.4713 110.08 87.9719C110.08 87.4757 110.079 86.9794 110.079 86.4682C110.08 85.4176 110.085 84.3671 110.093 83.3167C110.104 81.7044 110.103 80.0926 110.099 78.4803C110.102 77.4615 110.106 76.4426 110.11 75.4237C110.109 74.9391 110.109 74.4544 110.108 73.9551C110.113 73.5074 110.118 73.0596 110.122 72.5983C110.126 72.0058 110.126 72.0058 110.129 71.4012C110.356 69.6473 111.071 69.4909 112.741 69.3518Z" fill="#0074ED"/>
<path d="M105.46 71.3958C105.724 74.0973 105.099 75.4804 103.543 77.625C102.374 78.1341 102.374 78.1341 101.146 78.1042C100.346 77.7883 99.5468 77.4685 98.7492 77.1458C96.3492 76.9316 94.9283 77.1069 92.9968 78.5833C92.2294 80.1175 92.2782 81.7103 92.5175 83.375C93.3773 84.7215 93.9646 85.5357 95.3937 86.25C96.4246 86.2208 96.4246 86.2208 97.5508 86.0703C97.9314 86.0271 98.3121 85.9838 98.7043 85.9393C99.7324 85.8171 99.7324 85.8171 100.667 85.2917C102.015 85.082 102.015 85.082 103.543 85.2917C104.783 86.5037 105.656 87.6158 106.449 89.1549C106.397 90.7767 105.657 91.3788 104.502 92.4792C100.935 94.9942 96.6777 94.7974 92.5175 94.3958C88.7749 93.6185 86.5061 91.7622 84.3683 88.6458C82.2918 85.298 82.4512 81.2361 83.138 77.4322C84.1908 74.1314 86.6287 71.3626 89.6712 69.7487C94.8762 67.2958 100.752 68.5165 105.46 71.3958Z" fill="#0074ED"/>
<path d="M61.4167 69.4019C61.8358 69.3973 62.255 69.3927 62.6868 69.3879C63.3706 69.3849 63.3706 69.3849 64.0683 69.3817C64.5335 69.379 64.9987 69.3763 65.478 69.3735C66.4641 69.3689 67.4502 69.3658 68.4363 69.364C69.9493 69.3593 71.462 69.3444 72.9749 69.3293C73.9308 69.3262 74.8867 69.3237 75.8427 69.3218C76.2976 69.3159 76.7525 69.31 77.2212 69.3039C77.8522 69.3061 77.8522 69.3061 78.4959 69.3083C78.867 69.3065 79.2382 69.3048 79.6205 69.303C80.0724 69.3901 80.0724 69.3901 80.5333 69.4791C81.6045 71.0852 81.622 71.6727 81.6119 73.552C81.6156 74.2413 81.6156 74.2413 81.6194 74.9446C81.4921 76.1874 81.4921 76.1874 80.5333 77.6249C79.0765 77.7653 79.0765 77.7653 77.3575 77.7147C76.7878 77.7018 76.2181 77.6888 75.6311 77.6754C75.1923 77.6588 74.7536 77.6421 74.3016 77.6249C74.3091 78.0844 74.3166 78.5438 74.3244 79.0172C74.3504 80.7192 74.3669 82.4212 74.3806 84.1234C74.3878 84.8606 74.3976 85.5977 74.4101 86.3348C74.4275 87.3934 74.4357 88.4518 74.442 89.5105C74.4494 89.8409 74.4569 90.1714 74.4645 90.5119C74.4648 91.4419 74.4648 91.4419 74.3016 92.9582C72.5841 94.1027 71.7543 94.0455 69.7177 94.0364C69.1634 94.0388 68.6091 94.0413 68.038 94.0438C66.6317 93.9166 66.6317 93.9166 65.673 92.9582C65.5892 91.7903 65.5619 90.6777 65.5794 89.5105C65.5807 89.1715 65.5821 88.8325 65.5835 88.4833C65.5889 87.3993 65.6009 86.3156 65.6131 85.2317C65.6179 84.4973 65.6223 83.763 65.6262 83.0286C65.6368 81.2273 65.6533 79.4261 65.673 77.6249C65.0066 77.6332 65.0066 77.6332 64.3267 77.6417C63.7526 77.6461 63.1786 77.6504 62.5871 77.6549C62.0143 77.6604 61.4415 77.666 60.8513 77.6717C59.4413 77.6249 59.4413 77.6249 58.9619 77.1457C58.9141 75.9424 58.8954 74.7552 58.902 73.552C58.9001 73.2154 58.8983 72.8787 58.8964 72.5319C58.9024 69.424 58.9024 69.424 61.4167 69.4019Z" fill="#0074ED"/>
<path d="M178.803 58.9374C179.882 59.8059 179.882 59.8059 180.721 60.8541C180.998 61.1308 181.274 61.4075 181.56 61.6926C181.757 61.8903 181.955 62.0879 182.159 62.2916C183.582 61.7519 184.004 61.4851 184.675 60.0754C185.514 58.9374 185.514 58.9374 186.406 58.7315C187.869 58.6835 188.991 58.7581 190.308 59.4166C191.097 60.9932 191.138 62.5164 190.787 64.2082C189.313 66.2017 187.929 67.0796 185.514 67.5624C181.651 67.8713 177.593 67.8792 174.459 65.3163C173.751 63.5707 173.83 62.2582 174.01 60.3749C175.049 58.4191 176.793 58.6906 178.803 58.9374Z" fill="#0074ED"/>
</g>
<defs>
<clipPath id="clip0_48_594">
<rect width="302" height="115" fill="white"/>
</clipPath>
</defs>
</svg>
