<svg width="22" height="22" viewBox="0 0 22 22" fill="none" xmlns="http://www.w3.org/2000/svg">
<path d="M20.1667 11C20.1667 12.2038 19.9296 13.3958 19.4689 14.5079C19.0083 15.6201 18.3331 16.6306 17.4819 17.4818C16.6306 18.333 15.6201 19.0082 14.508 19.4689C13.3958 19.9296 12.2038 20.1667 11 20.1667C9.79626 20.1667 8.60426 19.9296 7.49211 19.4689C6.37996 19.0082 5.36943 18.333 4.51823 17.4818C3.66702 16.6306 2.99181 15.6201 2.53114 14.5079C2.07048 13.3958 1.83337 12.2038 1.83337 11C1.83337 9.79621 2.07048 8.60421 2.53115 7.49206C2.99181 6.37991 3.66703 5.36939 4.51823 4.51818C5.36943 3.66698 6.37996 2.99177 7.49211 2.5311C8.60426 2.07043 9.79626 1.83333 11 1.83333C12.2038 1.83333 13.3958 2.07043 14.508 2.5311C15.6201 2.99177 16.6306 3.66698 17.4819 4.51818C18.3331 5.36939 19.0083 6.37991 19.4689 7.49206C19.9296 8.60422 20.1667 9.79621 20.1667 11L20.1667 11Z" stroke="white" stroke-width="1.5"/>
<path d="M14.6667 11C14.6667 12.2038 14.5719 13.3958 14.3876 14.5079C14.2033 15.6201 13.9332 16.6306 13.5928 17.4818C13.2523 18.333 12.8481 19.0082 12.4032 19.4689C11.9584 19.9296 11.4816 20.1667 11 20.1667C10.5185 20.1667 10.0417 19.9296 9.59687 19.4689C9.15201 19.0082 8.7478 18.333 8.40732 17.4818C8.06683 16.6306 7.79675 15.6201 7.61248 14.5079C7.42822 13.3958 7.33337 12.2038 7.33337 11C7.33337 9.79621 7.42822 8.60421 7.61248 7.49206C7.79675 6.37991 8.06683 5.36939 8.40732 4.51818C8.7478 3.66698 9.15201 2.99177 9.59687 2.5311C10.0417 2.07043 10.5185 1.83333 11 1.83333C11.4816 1.83333 11.9584 2.07043 12.4032 2.5311C12.8481 2.99177 13.2523 3.66698 13.5928 4.51818C13.9332 5.36939 14.2033 6.37991 14.3876 7.49206C14.5719 8.60422 14.6667 9.79621 14.6667 11L14.6667 11Z" stroke="white" stroke-width="1.5"/>
<path d="M1.83337 11H20.1667" stroke="white" stroke-width="1.5" stroke-linecap="round"/>
</svg>
