<svg width="230" height="60" viewBox="0 0 230 60" fill="none" xmlns="http://www.w3.org/2000/svg">
<path d="M4.72677 2.91264C5.12473 3.22153 5.23673 3.65018 5.39149 4.10884C5.42117 4.19413 5.45085 4.27942 5.48143 4.36729C5.57814 4.64578 5.67351 4.92471 5.7689 5.20365C5.83574 5.39665 5.9027 5.5896 5.96977 5.78252C6.07054 6.07242 6.17125 6.36233 6.27158 6.65238C6.54019 7.4288 6.81591 8.20238 7.09655 8.97457C7.13721 9.08665 7.17788 9.19872 7.21977 9.3142C7.30024 9.53596 7.38075 9.75771 7.46131 9.97944C7.58581 10.3229 7.70955 10.6666 7.8331 11.0103C8.22629 12.1037 8.62266 13.1956 9.03031 14.2838C9.53134 15.6214 10.0101 16.9649 10.4739 18.3157C11.413 21.0484 12.4247 23.7557 13.4263 26.4661C13.5362 26.7637 13.646 27.0614 13.7558 27.359C13.8308 27.5623 13.906 27.7655 13.9812 27.9686C14.3031 28.8415 14.6142 29.7176 14.9215 30.5957C15.2991 31.6745 15.6834 32.751 16.0689 33.827C16.106 33.9307 16.1431 34.0344 16.1813 34.1412C16.6739 35.5167 17.1749 36.8884 17.6886 38.2563C18.0857 39.3195 18.4575 40.3909 18.8229 41.4653C19.1673 42.4742 19.5402 43.4644 19.9162 44.4639C25.0041 44.5202 25.0041 44.5202 30.1948 44.5777C29.1925 47.9497 29.1925 47.9497 28.6979 49.4943C28.4796 50.1793 28.2648 50.8653 28.0494 51.5513C28.0251 51.6287 28.0008 51.7062 27.9757 51.7861C27.8503 52.1854 27.725 52.5847 27.5997 52.984C27.4976 53.3094 27.3954 53.6347 27.2931 53.96C27.1429 54.4377 26.9929 54.9155 26.8431 55.3933C26.8071 55.508 26.8071 55.508 26.7704 55.6251C26.4554 56.6304 26.1475 57.6373 25.8592 58.6506C25.7687 58.9445 25.6711 59.2276 25.562 59.5147C25.5313 59.5957 25.5006 59.6768 25.4689 59.7603C25.4456 59.8216 25.4222 59.8829 25.3981 59.946C23.9216 59.9566 22.4451 59.9647 20.9685 59.9696C20.2825 59.9719 19.5965 59.9751 18.9105 59.9803C7.85675 60.0623 7.85675 60.0624 3.89521 56.2671C2.16454 54.5643 1.14493 52.4347 0.572512 50.0989C0.545258 49.9884 0.518004 49.8778 0.489924 49.764C0.0241616 47.7263 0.0100024 45.6873 0.0127735 43.6075C0.0130589 43.2049 0.0120212 42.8024 0.0111702 42.3999C0.00972409 41.614 0.00950839 40.8281 0.00977696 40.0422C0.00998174 39.4024 0.00977856 38.7627 0.00929468 38.1229C0.00922671 38.0313 0.00915865 37.9398 0.00908861 37.8455C0.0089502 37.6594 0.00881146 37.4734 0.00867255 37.2873C0.00743419 35.5478 0.0076755 33.8082 0.00837369 32.0687C0.00896354 30.4831 0.00767941 28.8975 0.00550746 27.3119C0.00328606 25.6774 0.00235295 24.043 0.00278065 22.4086C0.00299779 21.4935 0.00272714 20.5784 0.0011003 19.6634C-0.000271064 18.8842 -0.000409314 18.1051 0.000961755 17.326C0.0016269 16.9298 0.00178101 16.5336 0.000390601 16.1374C-0.0126637 11.4831 0.614846 6.93067 4.02726 3.47472C4.46312 3.04404 4.46312 3.04404 4.72677 2.91264Z" fill="#FE6D00"/>
<path d="M55.2958 3.10678C56.9999 3.82608 58.1221 6.14341 58.8085 7.76322C59.1232 8.57028 59.3368 9.40842 59.534 10.2504C59.5606 10.3612 59.5606 10.3612 59.5876 10.4742C60.0129 12.4172 60.0022 14.3889 59.9984 16.3671C59.9978 16.7704 59.9986 17.1737 59.9993 17.577C60.0003 18.3642 60.0001 19.1514 59.9994 19.9386C59.9989 20.5792 59.9988 21.2197 59.9991 21.8602C59.9991 21.9518 59.9991 22.0434 59.9992 22.1378C59.9992 22.324 59.9993 22.5102 59.9994 22.6964C60 24.437 59.9993 26.1775 59.9981 27.9181C59.997 29.4074 59.9972 30.8967 59.9983 32.386C59.9995 34.1209 60 35.8558 59.9993 37.5907C59.9992 37.7761 59.9991 37.9616 59.9991 38.147C59.999 38.2838 59.999 38.2838 59.999 38.4234C59.9988 39.0622 59.9991 39.701 59.9996 40.3398C60.0003 41.1197 60.0001 41.8995 59.9989 42.6794C59.9983 43.0763 59.998 43.4731 59.9988 43.87C60.0019 45.9974 59.9525 48.0577 59.4414 50.1336C59.4122 50.2534 59.383 50.3733 59.3529 50.4968C58.5632 53.5718 56.7922 56.2561 54.0438 57.9074C50.3633 59.9965 46.1516 60.0253 42.0446 59.9945C41.5196 59.991 40.9946 59.9895 40.4695 59.9878C39.4472 59.9842 38.4249 59.9784 37.4026 59.9711C37.4889 59.4186 37.6278 58.9025 37.8015 58.3718C37.8638 58.1783 37.9259 57.9847 37.988 57.7912C38.022 57.6854 38.056 57.5797 38.091 57.4707C38.2949 56.8316 38.4931 56.1906 38.6919 55.5499C38.7799 55.2666 38.8679 54.9833 38.9559 54.7001C39.0003 54.5571 39.0446 54.4141 39.0904 54.2669C39.272 53.6818 39.4539 53.0968 39.6358 52.5118C39.7202 52.2401 39.8047 51.9684 39.8891 51.6967C40.3514 50.2099 40.8162 48.7239 41.2903 47.2407C41.364 47.0103 41.4376 46.7798 41.5111 46.5494C41.7199 45.8953 41.9288 45.2414 42.1378 44.5874C43.0722 41.6634 43.9917 38.735 44.9032 35.8038C44.9486 35.6577 44.9941 35.5117 45.0395 35.3656C45.2053 34.8327 45.371 34.2999 45.5349 33.7664C45.7851 32.9569 46.0492 32.1534 46.3204 31.3507C46.7184 30.1721 47.096 28.9936 47.4288 27.7949C47.6165 27.1239 47.8405 26.4738 48.0837 25.8205C48.2679 25.287 48.4199 24.7469 48.5716 24.2034C48.7595 23.5306 48.9545 22.8685 49.1984 22.2132C49.427 21.5966 49.6137 20.9766 49.7897 20.3438C50.073 19.3284 50.3886 18.3249 50.7157 17.3229C51.0935 16.1641 51.4661 15.0041 51.8269 13.8399C51.8693 13.7031 51.9117 13.5663 51.9554 13.4253C52.1198 12.8944 52.2838 12.3634 52.4475 11.8323C53.0211 9.97106 53.6081 8.11422 54.2011 6.25904C54.285 5.99634 54.3688 5.73361 54.4525 5.47083C54.5706 5.1003 54.6892 4.72992 54.8079 4.35957C54.8439 4.24624 54.88 4.13291 54.9171 4.01615C54.9503 3.91284 54.9835 3.80952 55.0178 3.70308C55.0468 3.61226 55.0759 3.52144 55.1058 3.42787C55.1818 3.22051 55.1818 3.22051 55.2958 3.10678Z" fill="#FE6D00"/>
<path d="M15.5844 0C24.9701 0 34.3558 0 44.026 0C43.7575 1.07513 43.499 2.10171 43.1372 3.13981C42.804 4.10266 42.5018 5.07288 42.2075 6.04818C41.9059 7.04545 41.596 8.04 41.284 9.03406C41.2586 9.11512 41.2332 9.19619 41.207 9.27971C40.97 10.0352 40.7326 10.7906 40.4952 11.546C39.7388 13.9463 39.7388 13.9463 39.0191 16.3579C38.8402 16.9738 38.6495 17.5858 38.4585 18.1981C38.3922 18.4113 38.3259 18.6245 38.2596 18.8378C38.2115 18.9921 38.1635 19.1464 38.1154 19.3007C37.9211 19.925 37.7275 20.5495 37.5342 21.1741C36.685 23.9155 35.8258 26.6537 34.9594 29.3897C34.4751 30.9203 34.0003 32.4535 33.536 33.9903C33.2902 34.8024 33.0407 35.6135 32.7916 36.4246C32.7632 36.5168 32.7349 36.609 32.7057 36.704C32.089 38.7116 31.4609 40.7156 30.8291 42.7184C30.754 42.7184 30.6789 42.7184 30.6016 42.7184C30.5577 42.5913 30.5139 42.4642 30.4688 42.3332C29.5147 39.5677 28.5454 36.8082 27.5558 34.0553C26.8942 32.2146 26.2438 30.3704 25.6037 28.5221C25.1162 27.1152 24.6145 25.7147 24.0983 24.3181C23.7171 23.2841 23.3552 22.2444 22.9991 21.2014C22.544 19.872 22.0761 18.5472 21.6069 17.2227C21.5658 17.1066 21.5247 16.9906 21.4824 16.8711C21.2706 16.2731 21.0587 15.6752 20.8467 15.0773C20.4698 14.0139 20.0933 12.9504 19.717 11.8868C19.6355 11.6565 19.554 11.4262 19.4725 11.1959C19.0632 10.0397 18.6546 8.8832 18.2499 7.72536C18.2181 7.63431 18.1863 7.54326 18.1535 7.44944C17.9035 6.73454 17.9035 6.73454 17.7839 6.39188C17.4689 5.49057 17.1502 4.59094 16.8198 3.69514C16.791 3.61684 16.7621 3.53853 16.7324 3.45785C16.5976 3.0927 16.462 2.7279 16.3253 2.36348C16.2776 2.23522 16.2299 2.10697 16.1808 1.97484C16.119 1.81016 16.119 1.81016 16.0559 1.64216C15.8752 1.10209 15.7341 0.549486 15.5844 0Z" fill="#FE6D00"/>
<path d="M206.088 13.7907C209.4 13.7907 212.712 13.7907 216.125 13.7907C217.953 23.8704 217.953 23.8704 218.472 27.3194C218.92 30.2911 219.448 33.2493 219.963 36.2099C221.013 31.8684 221.953 27.5139 222.823 23.132C222.996 22.2636 223.169 21.3953 223.343 20.5271C223.45 19.9945 223.556 19.4618 223.662 18.929C223.984 17.3112 224.328 15.6997 224.686 14.0896C226.44 14.0896 228.193 14.0896 230 14.0896C229.81 16.8524 229.227 19.5021 228.635 22.1979C228.529 22.6845 228.423 23.1711 228.318 23.6578C228.102 24.6558 227.884 25.6536 227.667 26.6512C227.353 28.0901 227.045 29.5302 226.738 30.9705C226.597 31.6287 226.456 32.2867 226.315 32.9448C226.226 33.364 226.137 33.7833 226.047 34.2026C225.924 34.7827 225.799 35.3626 225.674 35.9425C225.604 36.2697 225.534 36.5969 225.462 36.934C225.277 37.7045 225.277 37.7045 224.981 38.3023C221.669 38.3023 218.357 38.3023 214.944 38.3023C214.809 37.512 214.673 36.7217 214.534 35.9074C214.351 34.8436 214.168 33.7799 213.985 32.7162C213.937 32.4417 213.89 32.1673 213.842 31.8845C212.998 26.9776 212.998 26.9776 212.064 22.0879C211.78 20.6455 211.575 19.1972 211.386 17.7392C211.359 17.5316 211.332 17.324 211.304 17.1102C211.238 16.6016 211.172 16.0929 211.106 15.5842C211.067 15.8203 211.028 16.0565 210.987 16.2997C210.614 18.5378 210.24 20.7759 209.867 23.0139C209.675 24.1642 209.483 25.3144 209.291 26.4647C209.106 27.5773 208.92 28.6898 208.734 29.8023C208.664 30.2243 208.593 30.6462 208.523 31.0682C208.423 31.6646 208.324 32.2609 208.224 32.8573C208.168 33.1951 208.111 33.533 208.053 33.8811C207.8 35.3564 207.533 36.8291 207.269 38.3023C203.956 38.3023 200.644 38.3023 197.231 38.3023C196.746 37.0727 196.456 36.0489 196.204 34.7643C196.145 34.4666 196.145 34.4666 196.084 34.1629C195.999 33.7355 195.915 33.3079 195.831 32.8802C195.251 29.9218 194.659 26.9669 193.99 24.0276C193.943 23.8198 193.895 23.612 193.847 23.3979C193.622 22.4133 193.395 21.4296 193.164 20.4465C192.675 18.3184 192.355 16.2708 192.213 14.0896C193.869 14.0896 195.525 14.0896 197.231 14.0896C197.591 15.3637 197.925 16.5828 198.194 17.8705C198.262 18.191 198.329 18.5116 198.399 18.8419C198.47 19.1848 198.542 19.5278 198.615 19.8812C198.691 20.2408 198.766 20.6003 198.844 20.9708C199.235 22.8314 199.623 24.6927 200.007 26.5545C200.193 27.4497 200.378 28.3447 200.564 29.2397C200.698 29.8847 200.83 30.53 200.963 31.1753C201.046 31.5761 201.129 31.9768 201.212 32.3776C201.284 32.7282 201.357 33.0788 201.431 33.44C201.653 34.3872 201.931 35.2921 202.25 36.2099C202.29 35.9451 202.33 35.6804 202.371 35.4077C203.726 26.4839 203.726 26.4839 204.41 22.958C204.703 21.3671 204.942 19.7682 205.176 18.1673C205.209 17.9437 205.243 17.7202 205.277 17.4898C205.305 17.2949 205.334 17.0999 205.363 16.899C205.559 15.8531 205.833 14.8235 206.088 13.7907Z" fill="#FE6D00"/>
<path d="M82 13.8205C83.8582 13.8205 85.7165 13.8205 87.631 13.8205C88.9122 17.3063 90.1763 20.7981 91.4303 24.2939C91.6002 24.7674 91.7702 25.2408 91.9404 25.7141C92.9108 28.4139 93.863 31.1165 94.7439 33.8478C96.5374 28.5566 98.2058 23.2343 99.812 17.8826C99.924 17.5113 99.924 17.5113 100.038 17.1325C100.18 16.6634 100.32 16.1941 100.46 15.7245C100.934 14.153 100.934 14.153 101.264 13.8205C101.705 13.7946 102.148 13.7885 102.59 13.7913C102.856 13.7923 103.123 13.7932 103.397 13.7942C103.817 13.798 103.817 13.798 104.246 13.8018C104.668 13.8038 104.668 13.8038 105.099 13.8059C105.796 13.8094 106.494 13.8146 107.191 13.8205C106.529 16.3772 105.758 18.893 104.958 21.409C104.827 21.8236 104.696 22.2383 104.565 22.6531C104.22 23.7429 103.875 24.8325 103.529 25.9221C102.985 27.6358 102.443 29.3498 101.9 31.0639C101.766 31.4892 101.631 31.9145 101.496 32.3398C100.732 34.7541 99.9732 37.1701 99.2255 39.5897C99.1222 39.9239 99.1222 39.9239 99.0169 40.2648C98.687 41.333 98.3579 42.4015 98.0298 43.4703C97.9138 43.847 97.7977 44.2238 97.6782 44.612C97.5762 44.9443 97.4742 45.2766 97.3692 45.619C97.1149 46.4022 97.1149 46.4022 96.8185 47C94.9603 47 93.102 47 91.1875 47C91.4014 45.7056 91.6438 44.564 92.0106 43.3184C92.1139 42.9668 92.2173 42.6152 92.3238 42.253C92.4317 41.8898 92.5396 41.5266 92.6508 41.1525C92.7576 40.7882 92.8644 40.4238 92.9744 40.0485C93.4177 38.5473 93.87 37.0975 94.4476 35.6412C92.8827 35.6412 91.3179 35.6412 89.7056 35.6412C88.6284 33.0801 87.6309 30.5018 86.6864 27.8882C86.6176 27.6986 86.5489 27.509 86.4781 27.3136C85.3848 24.295 84.3209 21.2663 83.2781 18.2295C83.2129 18.0403 83.1476 17.8511 83.0804 17.6561C82.8971 17.1237 82.7154 16.5907 82.5337 16.0577C82.4303 15.7547 82.3269 15.4518 82.2203 15.1396C82 14.4183 82 14.4183 82 13.8205Z" fill="#FE6D00"/>
<path d="M148.128 13.0005C148.128 14.7761 148.128 16.5516 148.128 18.381C147.456 18.4488 146.784 18.5166 146.091 18.5865C144.362 18.8023 142.64 19.0694 141.436 20.4734C140.685 22.1921 140.753 23.9286 140.734 25.7768C140.728 26.1127 140.723 26.4485 140.717 26.7945C140.699 27.8634 140.686 28.9324 140.672 30.0014C140.661 30.7276 140.65 31.4539 140.638 32.1802C140.61 33.9573 140.586 35.7344 140.563 37.5116C138.643 37.5116 136.723 37.5116 134.745 37.5116C134.745 29.6202 134.745 21.7289 134.745 13.5983C136.665 13.5983 138.585 13.5983 140.563 13.5983C140.659 14.8807 140.755 16.163 140.854 17.4842C141.094 17.0712 141.334 16.6581 141.582 16.2325C142.646 14.5914 143.857 13.6398 145.691 13.0565C146.501 12.9909 147.315 13.0005 148.128 13.0005Z" fill="#FE6D00"/>
<path d="M164.66 13C164.66 14.8742 164.66 16.7485 164.66 18.6795C162.423 18.7729 162.423 18.7729 161.727 18.7955C160.43 18.8647 159.643 19.0982 158.55 19.8752C158.358 19.8752 158.166 19.8752 157.968 19.8752C157.439 21.2168 157.06 22.314 157.036 23.7678C157.03 24.073 157.024 24.3781 157.018 24.6925C157.011 25.1858 157.011 25.1858 157.003 25.689C156.997 26.0261 156.991 26.3632 156.985 26.7106C156.966 27.7887 156.949 28.8669 156.932 29.9452C156.919 30.6755 156.906 31.4059 156.894 32.1363C156.862 33.928 156.833 35.7198 156.804 37.5116C154.98 37.5116 153.156 37.5116 151.277 37.5116C151.277 29.5214 151.277 21.5312 151.277 13.2989C153.101 13.2989 154.925 13.2989 156.804 13.2989C156.9 14.7786 156.996 16.2583 157.095 17.7828C157.245 17.4745 157.395 17.1662 157.55 16.8486C159.157 13.9769 161.5 13 164.66 13Z" fill="#FE6D00"/>
<path d="M127.389 15.7183C130.012 18.3757 130.02 22.12 129.996 25.6241C129.996 25.9535 129.996 26.283 129.996 26.6224C129.995 27.312 129.993 28.0015 129.989 28.691C129.984 29.7516 129.983 30.8121 129.983 31.8727C129.982 32.5443 129.98 33.216 129.978 33.8876C129.978 34.2059 129.977 34.5242 129.977 34.8521C129.975 35.1437 129.973 35.4352 129.971 35.7356C129.97 35.9932 129.969 36.2507 129.968 36.5161C129.929 37.1019 129.929 37.1019 129.638 37.3919C129.225 37.417 128.812 37.4229 128.398 37.4202C128.15 37.4193 127.901 37.4183 127.644 37.4174C127.252 37.4137 127.252 37.4137 126.852 37.41C126.589 37.4087 126.326 37.4074 126.056 37.406C125.404 37.4026 124.753 37.3974 124.102 37.3919C124.006 36.2437 123.91 35.0955 123.811 33.9125C123.522 34.37 123.522 34.37 123.228 34.8367C122.002 36.5342 120.319 37.4782 118.273 37.8902C115.552 38.2724 112.945 37.6495 110.648 36.1336C109.302 34.9139 108.191 33.0088 108.008 31.192C107.949 29.0129 108.19 27.2367 109.706 25.5765C113.315 22.5393 119.594 22.3146 124.102 22.3146C123.664 20.4907 123.304 19.1782 121.771 17.9654C120.483 17.3243 118.803 17.5566 117.401 17.6754C115.613 18.4423 115.604 18.9485 114.779 20.8648C112.856 20.8648 110.933 20.8648 108.951 20.8648C109.278 18.5901 109.851 16.9531 111.598 15.3943C116.185 12.1802 122.975 12.1181 127.389 15.7183ZM119.459 26.4463C119.079 26.494 119.079 26.494 118.692 26.5426C116.927 26.7949 115.234 27.1768 114.068 28.6391C113.711 30.0209 113.729 30.9794 114.414 32.2453C115.357 33.3919 116.166 34.0895 117.686 34.2715C119.757 34.3408 121.206 33.8263 122.736 32.4265C124.102 30.7065 124.215 28.4039 124.102 26.0839C122.525 26.0324 121.015 26.2242 119.459 26.4463Z" fill="#FE6D00"/>
<path d="M186.79 16.5918C189.484 19.3014 190.063 22.9546 189.995 26.5536C189.833 29.9695 188.329 32.9099 185.803 35.2651C183.039 37.4685 179.55 38.2012 176.041 37.9542C172.496 37.492 169.701 36.2937 167.467 33.5389C164.962 29.8701 164.557 25.7484 165.396 21.4785C166.282 18.6515 168.089 16.3669 170.614 14.6965C176.139 11.951 182.193 12.5066 186.79 16.5918ZM172.969 19.0936C170.846 21.6995 170.901 24.8929 171.217 28.0697C171.611 30.1287 172.415 31.6327 174.152 32.92C175.871 33.8832 177.509 34.0546 179.433 33.6116C181.179 33.0118 182.108 31.9884 182.974 30.4432C184.332 27.5866 184.321 24.0653 183.252 21.1264C182.564 19.5908 181.685 18.5532 180.262 17.6037C177.585 16.7431 174.924 17.1176 172.969 19.0936Z" fill="#FE6D00"/>
</svg>
