<svg width="225" height="105" viewBox="0 0 225 105" fill="none" xmlns="http://www.w3.org/2000/svg">
<g clip-path="url(#clip0_48_649)">
<path d="M86.7861 17.824C86.7861 18.0741 86.7861 18.3242 86.7861 18.5819C87.1022 18.7197 87.1022 18.7197 87.4248 18.8602C89.9707 20.2609 92.253 22.6818 93.9611 25.0245C93.9611 25.2746 93.9611 25.5247 93.9611 25.7824C94.2103 25.7824 94.4596 25.7824 94.7164 25.7824C95.1475 26.3244 95.1475 26.3244 95.6191 27.0881C95.8794 27.5088 95.8794 27.5088 96.1449 27.9381C96.3278 28.2428 96.5106 28.5476 96.699 28.8616C96.8859 29.1724 97.0729 29.4833 97.2655 29.8035C103.101 39.6843 105.18 51.6059 102.341 62.8122C102.193 63.3546 102.044 63.8965 101.891 64.4377C101.823 64.6904 101.754 64.943 101.683 65.2034C99.4547 73.2097 94.2851 81.4662 87.5413 86.4181C87.2921 86.4181 87.0429 86.4181 86.7861 86.4181C86.7861 86.6682 86.7861 86.9184 86.7861 87.1761C86.258 87.6027 86.258 87.6027 85.5116 88.0687C85.2361 88.2409 84.9607 88.413 84.677 88.5904C73.999 95.0489 62.5989 97.9233 50.132 95.0634C47.2554 94.3393 44.513 93.4184 41.8477 92.1027C41.4743 91.9317 41.1009 91.7607 40.7162 91.5846C38.2725 90.4287 36.1345 89.0585 33.9852 87.4174C33.203 86.7893 33.203 86.7893 32.4068 86.4181C32.4068 86.168 32.4068 85.9179 32.4068 85.6602C32.0972 85.5312 32.0972 85.5312 31.7814 85.3996C25.0834 81.6355 20.523 72.3532 18.34 65.2904C15.1639 53.1317 16.4744 41.3351 22.5883 30.3301C24.413 27.2458 26.5357 24.5761 29.0081 21.9927C29.2642 21.7206 29.5202 21.4485 29.784 21.1681C31.0899 19.8114 31.0899 19.8114 31.6515 19.3399C31.9008 19.3399 32.15 19.3399 32.4068 19.3399C32.4068 19.0897 32.4068 18.8396 32.4068 18.5819C48.1126 5.82667 70.6605 5.96253 86.7861 17.824ZM49.6836 44.6126C47.5993 47.6186 46.6311 50.9395 47.1345 54.5844C48.0467 58.3436 49.902 61.3365 53.0778 63.5583C56.1456 65.3555 59.2327 66.1149 62.734 65.3955C66.6009 64.2723 69.7441 61.7472 71.8017 58.2956C73.341 55.0386 73.4291 51.046 72.2708 47.6444C70.3933 43.6989 67.3631 41.3749 63.3728 39.8044C58.2168 38.2229 52.9815 40.5766 49.6836 44.6126Z" fill="#3976FE"/>
<path d="M112.088 -0.366699C120.312 -0.366699 128.537 -0.366699 137.011 -0.366699C137.011 34.5254 137.011 69.4174 137.011 105.367C128.786 105.367 120.562 105.367 112.088 105.367C112.088 70.4747 112.088 35.5827 112.088 -0.366699Z" fill="#3976FE"/>
<path d="M147.585 26.1611C162.893 24.6009 162.893 24.6009 167.024 27.5991C169.626 29.7793 171.75 32.447 173.642 35.2565C175.2 34.0334 176.364 32.9426 177.433 31.2684C179.151 28.8189 180.974 26.5835 184.021 25.9732C189.348 25.3321 194.75 25.8798 200.076 26.1611C200.076 31.914 200.076 37.6668 200.076 43.5939C199.827 43.5939 199.578 43.5939 199.321 43.5939C199.22 43.8362 199.118 44.0785 199.014 44.3282C198.566 45.1098 198.566 45.1098 197.433 45.4888C197.433 45.7389 197.433 45.989 197.433 46.2467C197.183 46.2467 196.934 46.2467 196.677 46.2467C196.576 46.4734 196.475 46.7001 196.371 46.9336C195.922 47.762 195.508 48.2982 194.789 48.8995C194.54 48.8995 194.291 48.8995 194.034 48.8995C194.034 49.1497 194.034 49.3998 194.034 49.6575C193.785 49.6575 193.536 49.6575 193.279 49.6575C193.177 49.8998 193.076 50.1421 192.972 50.3917C192.523 51.1734 192.523 51.1734 191.391 51.5523C191.391 52.0526 191.391 52.5528 191.391 53.0682C192.209 53.8171 192.209 53.8171 193.291 54.5234C199.837 59.5453 199.837 59.5453 200.487 63.8645C200.955 68.8338 200.555 73.8831 200.076 78.8384C184.323 80.3342 184.323 80.3342 180.316 77.4701C178.081 75.61 176.27 73.3587 174.627 70.9652C174.091 70.0851 174.091 70.0851 173.264 69.743C173.264 69.9932 173.264 70.2433 173.264 70.501C173.015 70.501 172.766 70.501 172.509 70.501C172.408 70.7433 172.306 70.9856 172.202 71.2353C171.754 72.0169 171.754 72.0169 170.621 72.3959C170.621 72.646 170.621 72.8961 170.621 73.1538C170.371 73.1538 170.122 73.1538 169.865 73.1538C169.865 73.4039 169.865 73.6541 169.865 73.9118C169.616 73.9118 169.367 73.9118 169.11 73.9118C168.923 74.4745 168.923 74.4745 168.733 75.0487C168.483 75.0487 168.234 75.0487 167.977 75.0487C167.977 75.2988 167.977 75.5489 167.977 75.8066C167.728 75.8066 167.479 75.8066 167.222 75.8066C167.222 76.0567 167.222 76.3069 167.222 76.5646C166.973 76.5646 166.724 76.5646 166.467 76.5646C166.365 76.7991 166.264 77.0335 166.16 77.2751C165.711 78.0805 165.711 78.0805 164.579 78.8384C163.797 78.9296 163.797 78.9296 162.89 78.9245C162.38 78.9244 162.38 78.9244 161.859 78.9243C161.493 78.9204 161.128 78.9165 160.751 78.9124C160.375 78.9114 159.999 78.9103 159.612 78.9092C158.412 78.9049 157.211 78.8954 156.011 78.8858C155.197 78.882 154.384 78.8785 153.57 78.8754C151.575 78.8671 149.58 78.8544 147.585 78.8384C146.095 63.4109 146.095 63.4109 148.958 59.3902C151.027 56.8861 153.576 54.858 156.271 53.0682C155.712 51.6361 154.975 51.1047 153.707 50.2763C150.965 48.2355 148.15 46.0936 147.36 42.5996C146.625 37.1877 147.122 31.5805 147.585 26.1611Z" fill="#3976FE"/>
</g>
<defs>
<clipPath id="clip0_48_649">
<rect width="225" height="105" fill="white"/>
</clipPath>
</defs>
</svg>
