<svg width="1920" height="361" viewBox="0 0 1920 361" fill="none" xmlns="http://www.w3.org/2000/svg">
<path d="M-57 30.5H231H464C480.569 30.5 494 43.9315 494 60.5V330C494 346.569 507.431 360 524 360H1551C1567.57 360 1581 346.569 1581 330V58C1581 41.4314 1594.43 28 1611 28H1701.5H1869.5H1976.5" stroke="white" stroke-width="2" stroke-linecap="square" stroke-dasharray="20 20"/>
<path d="M1826.49 48.6151L1865.02 31.4359C1868.11 30.0585 1868.11 25.9415 1865.02 24.5641L1826.49 7.38491C1823 5.82842 1819.38 9.28466 1821.11 12.5227L1828.47 26.2981C1829.04 27.3695 1829.04 28.6305 1828.47 29.7019L1821.11 43.4772C1819.38 46.7153 1823 50.1716 1826.49 48.6151Z" fill="#FE6D00" stroke="white" stroke-width="2"/>
</svg>
