<svg width="165" height="165" viewBox="0 0 165 165" fill="none" xmlns="http://www.w3.org/2000/svg">
<g clip-path="url(#clip0_319_113)">
<path d="M106.836 51.4977L112.294 51.5856C117.989 51.6773 120.837 51.7232 122.956 53.3029C125.075 54.8827 125.932 57.5988 127.646 63.031L136.954 92.5282C139.074 99.2478 140.134 102.608 139.047 105.324C138.678 106.246 138.143 107.094 137.47 107.825C135.489 109.978 132.001 110.472 125.024 111.458C118.14 112.432 114.698 112.919 111.543 114.213C110.435 114.667 109.359 115.193 108.32 115.789C105.362 117.485 102.843 119.925 97.8039 124.804C91.2289 131.17 87.9415 134.354 83.9764 136.266C82.7821 136.842 81.5475 137.331 80.2822 137.727C76.0815 139.044 71.5454 138.971 62.4733 138.825L60.2667 138.789C54.5712 138.698 51.7235 138.652 49.6044 137.072C47.4854 135.492 46.6284 132.776 44.9143 127.344L36.8173 101.683C34.0926 93.0478 32.7302 88.7303 34.5399 85.606C34.8565 85.0593 35.2354 84.5511 35.6689 84.0915C38.1465 81.4652 40.9464 81.3542 50 81.5" stroke="#FE6D00" stroke-width="3"/>
<path d="M43.8797 69.6476C38.7089 53.2602 48.5001 35.5633 65.7491 30.1206C82.9981 24.6779 101.173 33.5503 106.344 49.9377C111.474 66.1967 107.493 88.3149 94.081 100.007C90.9545 102.733 86.783 104.049 82.6584 103.611C64.9649 101.734 49.0101 85.9066 43.8797 69.6476Z" stroke="#FE6D00" stroke-width="3"/>
<circle cx="75.6041" cy="61.3526" r="10.9167" transform="rotate(-17.5125 75.6041 61.3526)" stroke="#FE6D00" stroke-width="3"/>
</g>
<defs>
<clipPath id="clip0_319_113">
<rect width="131" height="131" fill="white" transform="translate(0 39.4197) rotate(-17.5125)"/>
</clipPath>
</defs>
</svg>
