<svg width="426" height="246" viewBox="0 0 426 246" fill="none" xmlns="http://www.w3.org/2000/svg">
<g clip-path="url(#clip0_1031_624)">
<rect x="65.2354" y="314.219" width="198" height="381" rx="20" transform="rotate(-108.841 65.2354 314.219)" fill="#5F5F5F"/>
<g clip-path="url(#clip1_1031_624)">
<rect x="70.2231" y="304.064" width="182" height="365" rx="12" transform="rotate(-108.841 70.2231 304.064)" fill="#777777"/>
<rect x="68.6643" y="307.238" width="59" height="59" transform="rotate(-108.841 68.6643 307.238)" stroke="white"/>
<rect x="49.6106" y="251.399" width="59" height="59" transform="rotate(-108.841 49.6106 251.399)" stroke="white"/>
<rect x="30.5564" y="195.561" width="59" height="59" transform="rotate(-108.841 30.5564 195.561)" stroke="white"/>
<rect x="86.3952" y="176.507" width="59" height="59" transform="rotate(-108.841 86.3952 176.507)" stroke="white"/>
<rect x="124.503" y="288.184" width="59" height="59" transform="rotate(-108.841 124.503 288.184)" stroke="white"/>
<rect x="105.449" y="232.345" width="59" height="59" transform="rotate(-108.841 105.449 232.345)" stroke="white"/>
<rect x="180.342" y="269.13" width="59" height="59" transform="rotate(-108.841 180.342 269.13)" stroke="white"/>
<rect x="161.288" y="213.291" width="59" height="59" transform="rotate(-108.841 161.288 213.291)" stroke="white"/>
<rect x="142.234" y="157.453" width="59" height="59" transform="rotate(-108.841 142.234 157.453)" stroke="white"/>
<rect x="11.5027" y="139.722" width="59" height="59" transform="rotate(-108.841 11.5027 139.722)" stroke="white"/>
<rect x="67.341" y="120.668" width="59" height="59" transform="rotate(-108.841 67.341 120.668)" stroke="white"/>
<rect x="123.18" y="101.614" width="59" height="59" transform="rotate(-108.841 123.18 101.614)" stroke="white"/>
<rect x="179.018" y="82.5603" width="59" height="59" transform="rotate(-108.841 179.018 82.5603)" stroke="white"/>
<rect x="234.857" y="63.5063" width="59" height="59" transform="rotate(-108.841 234.857 63.5063)" stroke="white"/>
<rect x="290.696" y="44.4525" width="59" height="59" transform="rotate(-108.841 290.696 44.4525)" stroke="white"/>
<rect x="198.072" y="138.399" width="59" height="59" transform="rotate(-108.841 198.072 138.399)" stroke="white"/>
<rect x="236.18" y="250.076" width="59" height="59" transform="rotate(-108.841 236.18 250.076)" stroke="white"/>
<rect x="217.126" y="194.238" width="59" height="59" transform="rotate(-108.841 217.126 194.238)" stroke="white"/>
<rect x="292.019" y="231.022" width="59" height="59" transform="rotate(-108.841 292.019 231.022)" stroke="white"/>
<rect x="272.965" y="175.184" width="59" height="59" transform="rotate(-108.841 272.965 175.184)" stroke="white"/>
<rect x="253.911" y="119.345" width="59" height="59" transform="rotate(-108.841 253.911 119.345)" stroke="white"/>
<rect x="309.75" y="100.291" width="59" height="59" transform="rotate(-108.841 309.75 100.291)" stroke="white"/>
<rect x="347.858" y="211.968" width="59" height="59" transform="rotate(-108.841 347.858 211.968)" stroke="white"/>
<rect x="328.803" y="156.13" width="59" height="59" transform="rotate(-108.841 328.803 156.13)" stroke="white"/>
<rect x="403.696" y="192.914" width="59" height="59" transform="rotate(-108.841 403.696 192.914)" stroke="white"/>
<rect x="384.642" y="137.076" width="59" height="59" transform="rotate(-108.841 384.642 137.076)" stroke="white"/>
<rect x="365.588" y="81.237" width="59" height="59" transform="rotate(-108.841 365.588 81.237)" stroke="white"/>
<rect x="421.426" y="62.1831" width="59" height="59" transform="rotate(-108.841 421.426 62.1831)" stroke="white"/>
<path d="M65.1097 251.922C61.9735 252.992 58.5636 251.317 57.4935 248.181L35.533 183.825C34.4628 180.689 36.1377 177.279 39.2738 176.208L40.2202 175.886C43.3564 174.815 46.7663 176.49 47.8364 179.626L69.7969 243.983C70.867 247.119 69.1922 250.529 66.0561 251.599L65.1097 251.922Z" fill="#5F5F5F"/>
<path d="M219.04 180.377C210.788 183.193 201.808 178.762 198.77 169.859C195.732 160.957 200.131 151.961 208.382 149.145C216.569 146.351 229.27 147.116 235.425 153.977C236.86 155.576 237.646 157.879 237.488 160.022C236.811 169.215 227.227 177.583 219.04 180.377Z" fill="#FF6D00" stroke="white" stroke-width="2"/>
<path d="M211.928 159.746C214.666 158.811 217.656 160.309 218.605 163.091C219.555 165.873 218.104 168.886 215.366 169.821C212.627 170.755 209.637 169.257 208.688 166.475C207.738 163.693 209.189 160.68 211.928 159.746Z" fill="#FF6D00" stroke="white" stroke-width="2"/>
</g>
</g>
<g clip-path="url(#clip2_1031_624)">
<rect x="65.2354" y="314.219" width="198" height="381" rx="20" transform="rotate(-108.841 65.2354 314.219)" fill="#5F5F5F"/>
<g clip-path="url(#clip3_1031_624)">
<rect x="70.2231" y="304.064" width="182" height="365" rx="12" transform="rotate(-108.841 70.2231 304.064)" fill="#777777"/>
<rect x="68.6643" y="307.238" width="59" height="59" transform="rotate(-108.841 68.6643 307.238)" stroke="white"/>
<rect x="49.6106" y="251.399" width="59" height="59" transform="rotate(-108.841 49.6106 251.399)" stroke="white"/>
<rect x="30.5564" y="195.561" width="59" height="59" transform="rotate(-108.841 30.5564 195.561)" stroke="white"/>
<rect x="86.3952" y="176.507" width="59" height="59" transform="rotate(-108.841 86.3952 176.507)" stroke="white"/>
<rect x="124.503" y="288.184" width="59" height="59" transform="rotate(-108.841 124.503 288.184)" stroke="white"/>
<rect x="105.449" y="232.345" width="59" height="59" transform="rotate(-108.841 105.449 232.345)" stroke="white"/>
<rect x="180.342" y="269.13" width="59" height="59" transform="rotate(-108.841 180.342 269.13)" stroke="white"/>
<rect x="161.288" y="213.291" width="59" height="59" transform="rotate(-108.841 161.288 213.291)" stroke="white"/>
<rect x="142.234" y="157.453" width="59" height="59" transform="rotate(-108.841 142.234 157.453)" stroke="white"/>
<rect x="11.5027" y="139.722" width="59" height="59" transform="rotate(-108.841 11.5027 139.722)" stroke="white"/>
<rect x="67.341" y="120.668" width="59" height="59" transform="rotate(-108.841 67.341 120.668)" stroke="white"/>
<rect x="123.18" y="101.614" width="59" height="59" transform="rotate(-108.841 123.18 101.614)" stroke="white"/>
<rect x="179.018" y="82.5603" width="59" height="59" transform="rotate(-108.841 179.018 82.5603)" stroke="white"/>
<rect x="234.857" y="63.5063" width="59" height="59" transform="rotate(-108.841 234.857 63.5063)" stroke="white"/>
<rect x="290.696" y="44.4525" width="59" height="59" transform="rotate(-108.841 290.696 44.4525)" stroke="white"/>
<rect x="198.072" y="138.399" width="59" height="59" transform="rotate(-108.841 198.072 138.399)" stroke="white"/>
<rect x="236.18" y="250.076" width="59" height="59" transform="rotate(-108.841 236.18 250.076)" stroke="white"/>
<rect x="217.126" y="194.238" width="59" height="59" transform="rotate(-108.841 217.126 194.238)" stroke="white"/>
<rect x="292.019" y="231.022" width="59" height="59" transform="rotate(-108.841 292.019 231.022)" stroke="white"/>
<rect x="272.965" y="175.184" width="59" height="59" transform="rotate(-108.841 272.965 175.184)" stroke="white"/>
<rect x="253.911" y="119.345" width="59" height="59" transform="rotate(-108.841 253.911 119.345)" stroke="white"/>
<rect x="309.75" y="100.291" width="59" height="59" transform="rotate(-108.841 309.75 100.291)" stroke="white"/>
<rect x="347.858" y="211.968" width="59" height="59" transform="rotate(-108.841 347.858 211.968)" stroke="white"/>
<rect x="328.803" y="156.13" width="59" height="59" transform="rotate(-108.841 328.803 156.13)" stroke="white"/>
<rect x="403.696" y="192.914" width="59" height="59" transform="rotate(-108.841 403.696 192.914)" stroke="white"/>
<rect x="384.642" y="137.076" width="59" height="59" transform="rotate(-108.841 384.642 137.076)" stroke="white"/>
<rect x="365.588" y="81.237" width="59" height="59" transform="rotate(-108.841 365.588 81.237)" stroke="white"/>
<rect x="421.426" y="62.1831" width="59" height="59" transform="rotate(-108.841 421.426 62.1831)" stroke="white"/>
<path d="M65.1097 251.922C61.9735 252.992 58.5636 251.317 57.4935 248.181L35.533 183.825C34.4628 180.689 36.1377 177.279 39.2738 176.208L40.2202 175.886C43.3564 174.815 46.7663 176.49 47.8364 179.626L69.7969 243.983C70.867 247.119 69.1922 250.529 66.0561 251.599L65.1097 251.922Z" fill="#5F5F5F"/>
<path d="M319 89.5C319 93.9183 322.582 97.5 327 97.5C331.418 97.5 335 93.9183 335 89.5C335 85.0817 331.418 81.5 327 81.5C322.582 81.5 319 85.0817 319 89.5ZM171.093 247.019C171.38 247.797 172.242 248.194 173.019 247.907C173.797 247.62 174.194 246.758 173.907 245.981L171.093 247.019ZM168.71 200.562L169.189 201.984L168.71 200.562ZM161.278 216.091L159.87 216.61L161.278 216.091ZM209.715 174.146L211.138 173.672L209.715 174.146ZM202.156 189.315L202.634 190.737L202.156 189.315ZM207.402 129.214L207.874 130.638L207.402 129.214ZM199.799 144.397L201.222 143.923L199.799 144.397ZM172.5 246.5L173.907 245.981L171.102 238.378L169.694 238.898L168.287 239.417L171.093 247.019L172.5 246.5ZM164.083 223.693L165.49 223.174L162.685 215.571L161.278 216.091L159.87 216.61L162.676 224.212L164.083 223.693ZM161.278 216.091L162.685 215.571C162.181 214.206 161.979 212.809 162.043 211.449L160.545 211.379L159.046 211.308C158.964 213.063 159.225 214.861 159.87 216.61L161.278 216.091ZM164.581 202.947L165.575 204.07C166.595 203.167 167.809 202.448 169.189 201.984L168.71 200.562L168.232 199.14C166.465 199.734 164.901 200.659 163.586 201.824L164.581 202.947ZM168.71 200.562L169.189 201.984L177.55 199.172L177.072 197.75L176.594 196.328L168.232 199.14L168.71 200.562ZM193.795 192.127L194.273 193.548L202.634 190.737L202.156 189.315L201.678 187.893L193.317 190.705L193.795 192.127ZM202.156 189.315L202.634 190.737C204.363 190.155 205.9 189.255 207.199 188.124L206.214 186.993L205.228 185.862C204.221 186.74 203.028 187.439 201.678 187.893L202.156 189.315ZM210.305 178.784L211.801 178.89C211.923 177.171 211.715 175.402 211.138 173.672L209.715 174.146L208.292 174.62C208.743 175.971 208.903 177.345 208.808 178.678L210.305 178.784ZM209.715 174.146L211.138 173.672L208.659 166.234L207.236 166.709L205.813 167.183L208.292 174.62L209.715 174.146ZM202.278 151.834L203.701 151.36L201.222 143.923L199.799 144.397L198.376 144.872L200.855 152.309L202.278 151.834ZM199.799 144.397L201.222 143.923C200.771 142.569 200.611 141.191 200.707 139.856L199.211 139.748L197.714 139.641C197.591 141.363 197.798 143.136 198.376 144.872L199.799 144.397ZM203.327 131.528L204.309 132.662C205.321 131.785 206.519 131.087 207.874 130.638L207.402 129.214L206.929 127.79C205.193 128.367 203.649 129.264 202.344 130.394L203.327 131.528ZM207.402 129.214L207.874 130.638L215.349 128.155L214.876 126.732L214.404 125.308L206.929 127.79L207.402 129.214ZM229.826 121.768L230.299 123.191L245.249 118.227L244.776 116.803L244.303 115.38L229.354 120.344L229.826 121.768ZM259.726 111.839L260.199 113.263L275.148 108.298L274.676 106.875L274.203 105.451L259.253 110.416L259.726 111.839ZM289.625 101.911L290.098 103.334L305.048 98.3699L304.575 96.9464L304.103 95.5228L289.153 100.487L289.625 101.911ZM319.525 91.9821L319.998 93.4057L327.473 90.9236L327 89.5L326.527 88.0764L319.052 90.5586L319.525 91.9821Z" fill="#FE6D00"/>
<path d="M303.186 70.7505C300.322 62.5154 304.7 53.5096 313.584 50.4198C322.469 47.33 331.491 51.6759 334.354 59.9109C337.196 68.0814 336.506 80.7864 329.681 86.9818C328.09 88.4261 325.792 89.2252 323.648 89.0798C314.451 88.4562 306.027 78.921 303.186 70.7505Z" fill="#FF6D00" stroke="white" stroke-width="2"/>
<path d="M323.775 63.518C324.725 66.2511 323.245 69.2495 320.468 70.2151C317.692 71.1807 314.671 69.7478 313.72 67.0146C312.77 64.2815 314.25 61.283 317.026 60.3175C319.803 59.3519 322.824 60.7848 323.775 63.518Z" fill="#FF6D00" stroke="white" stroke-width="2"/>
<path d="M104.186 233.75C101.322 225.515 105.7 216.51 114.584 213.42C123.469 210.33 132.491 214.676 135.354 222.911C138.196 231.081 137.506 243.786 130.681 249.982C129.09 251.426 126.792 252.225 124.648 252.08C115.451 251.456 107.027 241.921 104.186 233.75Z" fill="#FF6D00" stroke="white" stroke-width="2"/>
<path d="M124.775 226.518C125.725 229.251 124.245 232.25 121.468 233.215C118.692 234.181 115.671 232.748 114.72 230.015C113.77 227.281 115.25 224.283 118.026 223.317C120.803 222.352 123.824 223.785 124.775 226.518Z" fill="#FF6D00" stroke="white" stroke-width="2"/>
<g clip-path="url(#clip4_1031_624)">
<path d="M244.413 94.4167L213.649 123.274C211.182 125.587 212.532 129.477 215.902 129.766L257.927 133.369C261.735 133.696 264.022 129.244 261.327 126.751L249.864 116.148C248.972 115.323 248.559 114.131 248.748 112.932L251.181 97.5067C251.753 93.8809 247.2 91.8022 244.413 94.4167Z" fill="#FE6D00" stroke="white" stroke-width="2"/>
</g>
</g>
</g>
<path d="M117.701 87.1062C118.057 88.1516 119.194 88.7099 120.239 88.3531L145.793 79.6335C146.838 79.2768 147.396 78.1402 147.04 77.0948L117.701 87.1062Z" fill="#080808"/>
<path d="M59.9692 106.806C59.2558 104.715 60.3723 102.442 62.4631 101.729L105.998 86.873C108.089 86.1595 110.362 87.2761 111.076 89.3668L59.9692 106.806Z" fill="#5F5F5F"/>
<path d="M123.402 88.3307C122.867 86.7626 123.704 85.0577 125.272 84.5226L140.415 79.3554C141.983 78.8203 143.688 79.6578 144.223 81.2258L123.402 88.3307Z" fill="#5F5F5F"/>
<defs>
<clipPath id="clip0_1031_624">
<rect x="65.2354" y="314.219" width="198" height="381" rx="20" transform="rotate(-108.841 65.2354 314.219)" fill="white"/>
</clipPath>
<clipPath id="clip1_1031_624">
<rect x="70.2231" y="304.064" width="182" height="365" rx="12" transform="rotate(-108.841 70.2231 304.064)" fill="white"/>
</clipPath>
<clipPath id="clip2_1031_624">
<rect x="65.2354" y="314.219" width="198" height="381" rx="20" transform="rotate(-108.841 65.2354 314.219)" fill="white"/>
</clipPath>
<clipPath id="clip3_1031_624">
<rect x="70.2231" y="304.064" width="182" height="365" rx="12" transform="rotate(-108.841 70.2231 304.064)" fill="white"/>
</clipPath>
<clipPath id="clip4_1031_624">
<rect width="56" height="56" fill="white" transform="translate(270.262 136.906) rotate(160.866)"/>
</clipPath>
</defs>
</svg>
