<svg width="381" height="202" viewBox="0 0 381 202" fill="none" xmlns="http://www.w3.org/2000/svg">
<g clip-path="url(#clip0_658_1538)">
<rect y="202" width="198" height="381" rx="20" transform="rotate(-90 0 202)" fill="#5F5F5F"/>
<g clip-path="url(#clip1_658_1538)">
<rect x="8" y="194" width="182" height="365" rx="12" transform="rotate(-90 8 194)" fill="#777777"/>
<rect x="5.5" y="196.5" width="59" height="59" transform="rotate(-90 5.5 196.5)" stroke="white"/>
<rect x="5.5" y="137.5" width="59" height="59" transform="rotate(-90 5.5 137.5)" stroke="white"/>
<rect x="5.5" y="78.5" width="59" height="59" transform="rotate(-90 5.5 78.5)" stroke="white"/>
<rect x="64.5" y="78.5" width="59" height="59" transform="rotate(-90 64.5 78.5)" stroke="white"/>
<rect x="64.5" y="196.5" width="59" height="59" transform="rotate(-90 64.5 196.5)" stroke="white"/>
<rect x="64.5" y="137.5" width="59" height="59" transform="rotate(-90 64.5 137.5)" stroke="white"/>
<rect x="123.5" y="196.5" width="59" height="59" transform="rotate(-90 123.5 196.5)" stroke="white"/>
<rect x="123.5" y="137.5" width="59" height="59" transform="rotate(-90 123.5 137.5)" stroke="white"/>
<rect x="123.5" y="78.5" width="59" height="59" transform="rotate(-90 123.5 78.5)" stroke="white"/>
<rect x="5.5" y="19.5" width="59" height="59" transform="rotate(-90 5.5 19.5)" stroke="white"/>
<rect x="64.5" y="19.5" width="59" height="59" transform="rotate(-90 64.5 19.5)" stroke="white"/>
<rect x="123.5" y="19.5" width="59" height="59" transform="rotate(-90 123.5 19.5)" stroke="white"/>
<rect x="182.5" y="19.5" width="59" height="59" transform="rotate(-90 182.5 19.5)" stroke="white"/>
<rect x="241.5" y="19.5" width="59" height="59" transform="rotate(-90 241.5 19.5)" stroke="white"/>
<rect x="300.5" y="19.5" width="59" height="59" transform="rotate(-90 300.5 19.5)" stroke="white"/>
<rect x="182.5" y="78.5" width="59" height="59" transform="rotate(-90 182.5 78.5)" stroke="white"/>
<rect x="182.5" y="196.5" width="59" height="59" transform="rotate(-90 182.5 196.5)" stroke="white"/>
<rect x="182.5" y="137.5" width="59" height="59" transform="rotate(-90 182.5 137.5)" stroke="white"/>
<rect x="241.5" y="196.5" width="59" height="59" transform="rotate(-90 241.5 196.5)" stroke="white"/>
<rect x="241.5" y="137.5" width="59" height="59" transform="rotate(-90 241.5 137.5)" stroke="white"/>
<rect x="241.5" y="78.5" width="59" height="59" transform="rotate(-90 241.5 78.5)" stroke="white"/>
<rect x="300.5" y="78.5" width="59" height="59" transform="rotate(-90 300.5 78.5)" stroke="white"/>
<rect x="300.5" y="196.5" width="59" height="59" transform="rotate(-90 300.5 196.5)" stroke="white"/>
<rect x="300.5" y="137.5" width="59" height="59" transform="rotate(-90 300.5 137.5)" stroke="white"/>
<rect x="359.5" y="196.5" width="59" height="59" transform="rotate(-90 359.5 196.5)" stroke="white"/>
<rect x="359.5" y="137.5" width="59" height="59" transform="rotate(-90 359.5 137.5)" stroke="white"/>
<rect x="359.5" y="78.5" width="59" height="59" transform="rotate(-90 359.5 78.5)" stroke="white"/>
<path d="M20 143C16.6863 143 14 140.314 14 137L14 69C14 65.6863 16.6863 63 20 63H21C24.3137 63 27 65.6863 27 69L27 137C27 140.314 24.3137 143 21 143H20Z" fill="#5F5F5F"/>
<path d="M188.787 125C180.068 125 173 117.907 173 108.5C173 99.0933 180.068 92 188.787 92C197.437 92 209.211 96.8249 212.82 105.306C213.662 107.284 213.662 109.716 212.82 111.694C209.211 120.175 197.437 125 188.787 125Z" fill="#FF6D00" stroke="white" stroke-width="2"/>
<path d="M188.719 103.178C191.612 103.178 193.958 105.561 193.958 108.5C193.958 111.44 191.612 113.823 188.719 113.823C185.825 113.823 183.479 111.44 183.479 108.5C183.479 105.561 185.825 103.178 188.719 103.178Z" fill="#FF6D00" stroke="white" stroke-width="2"/>
</g>
</g>
<g clip-path="url(#clip2_658_1538)">
<rect y="202" width="198" height="381" rx="20" transform="rotate(-90 0 202)" fill="#5F5F5F"/>
<g clip-path="url(#clip3_658_1538)">
<rect x="8" y="194" width="182" height="365" rx="12" transform="rotate(-90 8 194)" fill="#777777"/>
<rect x="5.5" y="196.5" width="59" height="59" transform="rotate(-90 5.5 196.5)" stroke="white"/>
<rect x="5.5" y="137.5" width="59" height="59" transform="rotate(-90 5.5 137.5)" stroke="white"/>
<rect x="5.5" y="78.5" width="59" height="59" transform="rotate(-90 5.5 78.5)" stroke="white"/>
<rect x="64.5" y="78.5" width="59" height="59" transform="rotate(-90 64.5 78.5)" stroke="white"/>
<rect x="64.5" y="196.5" width="59" height="59" transform="rotate(-90 64.5 196.5)" stroke="white"/>
<rect x="64.5" y="137.5" width="59" height="59" transform="rotate(-90 64.5 137.5)" stroke="white"/>
<rect x="123.5" y="196.5" width="59" height="59" transform="rotate(-90 123.5 196.5)" stroke="white"/>
<rect x="123.5" y="137.5" width="59" height="59" transform="rotate(-90 123.5 137.5)" stroke="white"/>
<rect x="123.5" y="78.5" width="59" height="59" transform="rotate(-90 123.5 78.5)" stroke="white"/>
<rect x="5.5" y="19.5" width="59" height="59" transform="rotate(-90 5.5 19.5)" stroke="white"/>
<rect x="64.5" y="19.5" width="59" height="59" transform="rotate(-90 64.5 19.5)" stroke="white"/>
<rect x="123.5" y="19.5" width="59" height="59" transform="rotate(-90 123.5 19.5)" stroke="white"/>
<rect x="182.5" y="19.5" width="59" height="59" transform="rotate(-90 182.5 19.5)" stroke="white"/>
<rect x="241.5" y="19.5" width="59" height="59" transform="rotate(-90 241.5 19.5)" stroke="white"/>
<rect x="300.5" y="19.5" width="59" height="59" transform="rotate(-90 300.5 19.5)" stroke="white"/>
<rect x="182.5" y="78.5" width="59" height="59" transform="rotate(-90 182.5 78.5)" stroke="white"/>
<rect x="182.5" y="196.5" width="59" height="59" transform="rotate(-90 182.5 196.5)" stroke="white"/>
<rect x="182.5" y="137.5" width="59" height="59" transform="rotate(-90 182.5 137.5)" stroke="white"/>
<rect x="241.5" y="196.5" width="59" height="59" transform="rotate(-90 241.5 196.5)" stroke="white"/>
<rect x="241.5" y="137.5" width="59" height="59" transform="rotate(-90 241.5 137.5)" stroke="white"/>
<rect x="241.5" y="78.5" width="59" height="59" transform="rotate(-90 241.5 78.5)" stroke="white"/>
<rect x="300.5" y="78.5" width="59" height="59" transform="rotate(-90 300.5 78.5)" stroke="white"/>
<rect x="300.5" y="196.5" width="59" height="59" transform="rotate(-90 300.5 196.5)" stroke="white"/>
<rect x="300.5" y="137.5" width="59" height="59" transform="rotate(-90 300.5 137.5)" stroke="white"/>
<rect x="359.5" y="196.5" width="59" height="59" transform="rotate(-90 359.5 196.5)" stroke="white"/>
<rect x="359.5" y="137.5" width="59" height="59" transform="rotate(-90 359.5 137.5)" stroke="white"/>
<rect x="359.5" y="78.5" width="59" height="59" transform="rotate(-90 359.5 78.5)" stroke="white"/>
<path d="M20 143C16.6863 143 14 140.314 14 137L14 69C14 65.6863 16.6863 63 20 63H21C24.3137 63 27 65.6863 27 69L27 137C27 140.314 24.3137 143 21 143H20Z" fill="#5F5F5F"/>
<path d="M79.5 215L236.5 1.5" stroke="#FE6D00" stroke-width="5" stroke-dasharray="15 15"/>
<g clip-path="url(#clip4_658_1538)">
<path d="M164.166 138.629L176.28 91.7476C177.251 87.9887 173.553 85.0451 170.108 86.8344L127.136 109.151C123.242 111.173 123.758 116.895 127.902 117.658L145.533 120.901C146.904 121.153 148.037 122.055 148.59 123.335L155.704 139.789C157.376 143.657 163.069 142.877 164.166 138.629Z" fill="#FE6D00" stroke="white" stroke-width="2"/>
</g>
</g>
</g>
<path d="M123 4C123 5.10457 123.895 6 125 6L152 6C153.105 6 154 5.10457 154 4L123 4Z" fill="#080808"/>
<path d="M62 4C62 1.79086 63.7909 0 66 0L112 0C114.209 0 116 1.79086 116 4L62 4Z" fill="#5F5F5F"/>
<path d="M128 7C128 5.34315 129.343 4 131 4L147 4C148.657 4 150 5.34315 150 7L128 7Z" fill="#5F5F5F"/>
<defs>
<clipPath id="clip0_658_1538">
<rect y="202" width="198" height="381" rx="20" transform="rotate(-90 0 202)" fill="white"/>
</clipPath>
<clipPath id="clip1_658_1538">
<rect x="8" y="194" width="182" height="365" rx="12" transform="rotate(-90 8 194)" fill="white"/>
</clipPath>
<clipPath id="clip2_658_1538">
<rect y="202" width="198" height="381" rx="20" transform="rotate(-90 0 202)" fill="white"/>
</clipPath>
<clipPath id="clip3_658_1538">
<rect x="8" y="194" width="182" height="365" rx="12" transform="rotate(-90 8 194)" fill="white"/>
</clipPath>
<clipPath id="clip4_658_1538">
<rect width="64.2866" height="64.2866" fill="white" transform="translate(113 113.296) rotate(-51.4783)"/>
</clipPath>
</defs>
</svg>
