<svg width="692" height="242" viewBox="0 0 692 242" fill="none" xmlns="http://www.w3.org/2000/svg">
<rect width="692" height="242" rx="20" fill="#5F5F5F"/>
<circle cx="24" cy="24" r="10" fill="#ED6A5E"/>
<circle cx="49" cy="24" r="10" fill="#F4BE4F"/>
<circle cx="74" cy="24" r="10" fill="#61C454"/>
<g clip-path="url(#clip0_1076_250)">
<rect x="14" y="48" width="664" height="180" rx="12" fill="#777777"/>
<rect x="12.5" y="46.5" width="59" height="59" stroke="white"/>
<rect x="71.5" y="46.5" width="59" height="59" stroke="white"/>
<rect x="130.5" y="46.5" width="59" height="59" stroke="white"/>
<rect x="189.5" y="46.5" width="59" height="59" stroke="white"/>
<rect x="248.5" y="46.5" width="59" height="59" stroke="white"/>
<rect x="12.5" y="105.5" width="59" height="59" stroke="white"/>
<rect x="71.5" y="105.5" width="59" height="59" stroke="white"/>
<rect x="130.5" y="105.5" width="59" height="59" stroke="white"/>
<rect x="189.5" y="105.5" width="59" height="59" stroke="white"/>
<rect x="248.5" y="105.5" width="59" height="59" stroke="white"/>
<rect x="12.5" y="164.5" width="59" height="59" stroke="white"/>
<rect x="71.5" y="164.5" width="59" height="59" stroke="white"/>
<rect x="130.5" y="164.5" width="59" height="59" stroke="white"/>
<rect x="189.5" y="164.5" width="59" height="59" stroke="white"/>
<rect x="248.5" y="164.5" width="59" height="59" stroke="white"/>
<rect x="12.5" y="223.5" width="59" height="59" stroke="white"/>
<rect x="71.5" y="223.5" width="59" height="59" stroke="white"/>
<rect x="130.5" y="223.5" width="59" height="59" stroke="white"/>
<rect x="189.5" y="223.5" width="59" height="59" stroke="white"/>
<rect x="248.5" y="223.5" width="59" height="59" stroke="white"/>
<rect x="307.5" y="46.5" width="59" height="59" stroke="white"/>
<rect x="366.5" y="46.5" width="59" height="59" stroke="white"/>
<rect x="425.5" y="46.5" width="59" height="59" stroke="white"/>
<rect x="484.5" y="46.5" width="59" height="59" stroke="white"/>
<rect x="543.5" y="46.5" width="59" height="59" stroke="white"/>
<rect x="602.5" y="46.5" width="59" height="59" stroke="white"/>
<rect x="661.5" y="46.5" width="59" height="59" stroke="white"/>
<rect x="602.5" y="105.5" width="59" height="59" stroke="white"/>
<rect x="661.5" y="105.5" width="59" height="59" stroke="white"/>
<rect x="602.5" y="164.5" width="59" height="59" stroke="white"/>
<rect x="661.5" y="164.5" width="59" height="59" stroke="white"/>
<rect x="602.5" y="223.5" width="59" height="59" stroke="white"/>
<rect x="661.5" y="223.5" width="59" height="59" stroke="white"/>
<rect x="307.5" y="105.5" width="59" height="59" stroke="white"/>
<rect x="366.5" y="105.5" width="59" height="59" stroke="white"/>
<rect x="425.5" y="105.5" width="59" height="59" stroke="white"/>
<rect x="484.5" y="105.5" width="59" height="59" stroke="white"/>
<rect x="543.5" y="105.5" width="59" height="59" stroke="white"/>
<rect x="307.5" y="164.5" width="59" height="59" stroke="white"/>
<rect x="366.5" y="164.5" width="59" height="59" stroke="white"/>
<rect x="425.5" y="164.5" width="59" height="59" stroke="white"/>
<rect x="484.5" y="164.5" width="59" height="59" stroke="white"/>
<rect x="543.5" y="164.5" width="59" height="59" stroke="white"/>
<rect x="307.5" y="223.5" width="59" height="59" stroke="white"/>
<rect x="366.5" y="223.5" width="59" height="59" stroke="white"/>
<rect x="425.5" y="223.5" width="59" height="59" stroke="white"/>
<rect x="484.5" y="223.5" width="59" height="59" stroke="white"/>
<rect x="543.5" y="223.5" width="59" height="59" stroke="white"/>
</g>
<rect x="221" y="14" width="250" height="20" rx="10" fill="#777777"/>
<defs>
<clipPath id="clip0_1076_250">
<rect x="14" y="48" width="664" height="180" rx="12" fill="white"/>
</clipPath>
</defs>
</svg>
