<svg width="182" height="182" viewBox="0 0 182 182" fill="none" xmlns="http://www.w3.org/2000/svg">
<g clip-path="url(#clip0_319_117)">
<path d="M24.1663 86.1923C19.1813 77.5589 22.6605 66.2179 31.9372 60.8616C41.2139 55.5052 52.7753 58.1619 57.7602 66.7954C62.7061 75.3612 63.1164 88.4521 56.8159 96.8561C55.3472 98.8152 53.1037 100.111 50.6727 100.403C40.2445 101.658 29.1121 94.7582 24.1663 86.1923Z" stroke="#FE6D00" stroke-width="4"/>
<path d="M119.807 107.759C114.822 99.1258 118.301 87.7848 127.578 82.4285C136.855 77.0721 148.416 79.7288 153.401 88.3623C158.347 96.9281 158.757 110.019 152.457 118.423C150.988 120.382 148.744 121.678 146.313 121.97C135.885 123.225 124.753 116.325 119.807 107.759Z" stroke="#FE6D00" stroke-width="4"/>
<path d="M142.075 96.4544C143.606 99.1049 142.698 102.494 140.047 104.025C137.397 105.555 134.008 104.647 132.477 101.996C130.947 99.3459 131.855 95.9566 134.505 94.4263C137.156 92.8959 140.545 93.8039 142.075 96.4544Z" fill="#FE6D00"/>
<path d="M46.4348 74.8875C47.9652 77.538 47.0572 80.9273 44.4067 82.4576C41.7562 83.988 38.367 83.08 36.8366 80.4295C35.3062 77.779 36.2142 74.3898 38.8647 72.8594C41.5152 71.329 44.9045 72.237 46.4348 74.8875Z" fill="#FE6D00"/>
<path d="M70.4445 55.5156C69.4879 56.068 69.1602 57.2912 69.7125 58.2477C70.2649 59.2043 71.488 59.532 72.4446 58.9797L70.4445 55.5156ZM110.238 124.435L112.17 124.953C112.456 123.886 111.823 122.789 110.756 122.504L110.238 124.435ZM106.645 60.5188L108.418 61.4431L106.645 60.5188ZM75.0384 121.164L76.812 122.089L76.812 122.089L75.0384 121.164ZM99.4009 119.461C98.3339 119.176 97.2373 119.809 96.9514 120.876C96.6656 121.943 97.2988 123.039 98.3657 123.325L99.4009 119.461ZM105.264 135.273C104.979 136.34 105.612 137.437 106.679 137.723C107.746 138.008 108.842 137.375 109.128 136.308L105.264 135.273ZM91.274 45.7982L90.2739 44.0662L70.4445 55.5156L71.4446 57.2477L72.4446 58.9797L92.2741 47.5302L91.274 45.7982ZM110.238 124.435L109.238 122.703L89.409 134.153L90.4091 135.885L91.4091 137.617L111.239 126.167L110.238 124.435ZM106.645 60.5188L104.871 59.5945L73.2649 120.24L75.0384 121.164L76.812 122.089L108.418 61.4431L106.645 60.5188ZM110.238 124.435L110.756 122.504L99.4009 119.461L98.8833 121.393L98.3657 123.325L109.721 126.367L110.238 124.435ZM110.238 124.435L108.307 123.918L105.264 135.273L107.196 135.791L109.128 136.308L112.17 124.953L110.238 124.435ZM90.4091 135.885L89.409 134.153C81.5392 138.697 72.6122 130.147 76.812 122.089L75.0384 121.164L73.2649 120.24C67.2155 131.847 80.0737 144.162 91.4091 137.617L90.4091 135.885ZM91.274 45.7982L92.2741 47.5302C100.144 42.9863 109.071 51.5358 104.871 59.5945L106.645 60.5188L108.418 61.4431C114.468 49.8357 101.609 37.5212 90.2739 44.0662L91.274 45.7982Z" fill="#FE6D00"/>
</g>
<defs>
<clipPath id="clip0_319_117">
<rect width="133" height="133" fill="white" transform="translate(0 66.5039) rotate(-30.0019)"/>
</clipPath>
</defs>
</svg>
